<?xml version="1.0" encoding="utf-8"?>
<!-- Generator: Adobe Illustrator 23.0.1, SVG Export Plug-In . SVG Version: 6.00 Build 0)  -->
<svg version="1.1" xmlns="http://www.w3.org/2000/svg" xmlns:xlink="http://www.w3.org/1999/xlink" x="0px" y="0px"
	 viewBox="0 0 767.84 170.93" style="enable-background:new 0 0 767.84 170.93;" xml:space="preserve">
<style type="text/css">
	.st0{fill:#FFFFFF;}
	.st1{display:none;}
	.st2{display:inline;fill:#FFFFFF;}
	.st3{fill:#145A70;}
	.st4{display:none;fill:#FFFFFF;}
	.st5{display:none;fill:#135A70;}
	.st6{fill:#135A70;}
	.st7{display:inline;}
	.st8{display:inline;clip-path:url(#SVGID_2_);}
	.st9{fill:#46463A;}
	.st10{display:inline;clip-path:url(#SVGID_4_);}
	.st11{fill:#15ADBC;}
	.st12{display:inline;clip-path:url(#SVGID_6_);}
	.st13{display:inline;clip-path:url(#SVGID_8_);}
</style>
<g id="Layer_2">
	<rect x="-129.03" y="617.08" class="st0" width="1000.13" height="999.72"/>
</g>
<g id="Layer_2_copy_2" class="st1">
	<rect x="-129.03" y="-438.28" class="st2" width="1000.13" height="999.72"/>
</g>
<g id="Layer_2_copy_3">
	<rect x="-1193.09" y="617.08" class="st0" width="1000.13" height="999.72"/>
</g>
<g id="Layer_2_copy">
	<rect x="-1193.09" y="-438.28" class="st0" width="1000.13" height="999.72"/>
</g>
<g id="Layer_1">
	<g>
		<g>
			<path class="st3" d="M-948.64,226.95c-3.06-3.19-4.7-7.57-4.92-13.12c-0.04-1.19-0.07-3.13-0.07-5.81c0-2.73,0.02-4.71,0.07-5.95
				c0.22-5.55,1.86-9.92,4.92-13.12c3.06-3.19,7.52-4.79,13.38-4.79c3.92,0,7.25,0.69,9.98,2.08c2.73,1.39,4.79,3.2,6.18,5.45
				c1.39,2.25,2.15,4.65,2.28,7.2c0,0.4-0.14,0.72-0.43,0.96c-0.29,0.24-0.63,0.36-1.02,0.36h-3.3c-0.44,0-0.79-0.11-1.06-0.33
				c-0.26-0.22-0.46-0.59-0.59-1.12c-0.75-3.39-2.1-5.77-4.06-7.14c-1.96-1.37-4.61-2.05-7.96-2.05c-7.66,0-11.65,4.27-11.96,12.82
				c-0.04,1.19-0.07,3.02-0.07,5.48c0,2.47,0.02,4.34,0.07,5.62c0.31,8.5,4.29,12.75,11.96,12.75c3.3,0,5.95-0.68,7.93-2.05
				c1.98-1.36,3.35-3.72,4.1-7.07c0.13-0.53,0.33-0.9,0.59-1.12c0.26-0.22,0.62-0.33,1.06-0.33h3.3c0.4,0,0.74,0.12,1.02,0.36
				c0.29,0.24,0.43,0.56,0.43,0.96c-0.13,2.56-0.89,4.96-2.28,7.2c-1.39,2.25-3.45,4.06-6.18,5.45c-2.73,1.39-6.06,2.08-9.98,2.08
				C-941.12,231.74-945.58,230.15-948.64,226.95z"/>
			<path class="st3" d="M-907.44,230.65c-0.26-0.29-0.4-0.65-0.4-1.09v-43.21c0-0.44,0.13-0.8,0.4-1.09
				c0.26-0.29,0.62-0.43,1.06-0.43h3.3c0.44,0,0.79,0.14,1.06,0.43c0.26,0.29,0.4,0.65,0.4,1.09v39.18h22.07
				c0.48,0,0.87,0.14,1.16,0.43c0.29,0.29,0.43,0.65,0.43,1.09v2.51c0,0.44-0.15,0.8-0.46,1.09c-0.31,0.29-0.68,0.43-1.12,0.43
				h-26.83C-906.83,231.08-907.18,230.94-907.44,230.65z"/>
			<path class="st3" d="M-868.19,227.22c-3.13-3.02-4.78-7.57-4.96-13.64c-0.04-1.32-0.07-3.19-0.07-5.62
				c0-2.42,0.02-4.27,0.07-5.55c0.18-5.99,1.88-10.53,5.12-13.61c3.24-3.08,7.61-4.62,13.12-4.62c5.51,0,9.87,1.54,13.08,4.62
				c3.21,3.08,4.91,7.62,5.09,13.61c0.09,2.56,0.13,4.41,0.13,5.55c0,1.1-0.04,2.97-0.13,5.62c-0.18,6.08-1.82,10.63-4.92,13.64
				c-3.11,3.02-7.52,4.53-13.25,4.53C-860.64,231.74-865.07,230.24-868.19,227.22z M-846.46,223.06c2.11-2.14,3.26-5.41,3.44-9.81
				c0.09-2.64,0.13-4.4,0.13-5.29c0-0.97-0.04-2.73-0.13-5.29c-0.18-4.4-1.32-7.69-3.44-9.84c-2.11-2.16-4.93-3.24-8.46-3.24
				c-3.52,0-6.35,1.08-8.49,3.24c-2.14,2.16-3.27,5.44-3.4,9.84c-0.04,1.28-0.07,3.04-0.07,5.29c0,2.2,0.02,3.96,0.07,5.29
				c0.13,4.41,1.26,7.68,3.37,9.81c2.11,2.14,4.96,3.21,8.52,3.21C-851.39,226.26-848.57,225.19-846.46,223.06z"/>
			<path class="st3" d="M-822.6,227.15c-3.08-3.06-4.63-7.7-4.63-13.91v-26.83c0-0.48,0.13-0.87,0.4-1.16
				c0.26-0.29,0.62-0.43,1.06-0.43h3.17c0.48,0,0.87,0.14,1.16,0.43c0.29,0.29,0.43,0.67,0.43,1.16v26.96c0,4.32,1,7.53,3.01,9.65
				c2,2.12,4.86,3.17,8.56,3.17c3.66,0,6.49-1.07,8.49-3.2c2-2.14,3.01-5.34,3.01-9.61v-26.96c0-0.48,0.13-0.87,0.4-1.16
				c0.26-0.29,0.64-0.43,1.12-0.43h3.17c0.44,0,0.8,0.14,1.09,0.43c0.29,0.29,0.43,0.67,0.43,1.16v26.83
				c0,6.21-1.53,10.85-4.59,13.91c-3.06,3.06-7.43,4.59-13.12,4.59C-815.14,231.74-819.52,230.21-822.6,227.15z"/>
			<path class="st3" d="M-780.18,230.65c-0.26-0.29-0.4-0.65-0.4-1.09v-43.15c0-0.48,0.13-0.87,0.4-1.16
				c0.26-0.29,0.62-0.43,1.06-0.43h14.93c6.65,0,11.45,1.49,14.4,4.46c2.95,2.97,4.47,7.46,4.56,13.45c0.04,1.28,0.07,3,0.07,5.15
				c0,2.16-0.02,3.9-0.07,5.22c-0.09,4.19-0.76,7.59-2.02,10.21c-1.26,2.62-3.23,4.57-5.91,5.85c-2.69,1.28-6.26,1.92-10.7,1.92
				h-15.26C-779.57,231.08-779.92,230.94-780.18,230.65z M-764.19,225.6c3.08,0,5.54-0.43,7.37-1.29c1.83-0.86,3.15-2.2,3.96-4.03
				c0.81-1.83,1.27-4.31,1.35-7.43c0.09-2.64,0.13-4.29,0.13-4.96c0-0.7-0.04-2.33-0.13-4.89c-0.09-4.4-1.13-7.63-3.14-9.68
				c-2-2.05-5.3-3.07-9.88-3.07h-9.85v35.35H-764.19z"/>
			<path class="st3" d="M-724.75,230.69c-0.26-0.26-0.4-0.57-0.4-0.92l0.13-0.73l16.39-42.75c0.35-0.97,1.06-1.45,2.11-1.45h4.23
				c1.06,0,1.76,0.49,2.11,1.45l16.39,42.75l0.13,0.73c0,0.35-0.14,0.66-0.43,0.92s-0.61,0.4-0.96,0.4h-3.11
				c-0.44,0-0.8-0.12-1.09-0.36c-0.29-0.24-0.47-0.5-0.56-0.76l-3.7-9.51h-21.87l-3.63,9.51c-0.35,0.75-0.9,1.12-1.65,1.12h-3.17
				C-724.18,231.08-724.48,230.95-724.75,230.69z M-713.45,214.96h18.1l-9.05-23.72L-713.45,214.96z"/>
			<path class="st3" d="M-674.23,226.95c-3.06-3.19-4.7-7.57-4.92-13.12c-0.04-1.19-0.07-3.13-0.07-5.81c0-2.73,0.02-4.71,0.07-5.95
				c0.22-5.55,1.86-9.92,4.92-13.12c3.06-3.19,7.52-4.79,13.38-4.79c3.92,0,7.25,0.69,9.98,2.08c2.73,1.39,4.79,3.2,6.18,5.45
				c1.39,2.25,2.15,4.65,2.28,7.2c0,0.4-0.14,0.72-0.43,0.96c-0.29,0.24-0.63,0.36-1.02,0.36h-3.3c-0.44,0-0.79-0.11-1.06-0.33
				c-0.26-0.22-0.46-0.59-0.59-1.12c-0.75-3.39-2.1-5.77-4.06-7.14c-1.96-1.37-4.61-2.05-7.96-2.05c-7.66,0-11.65,4.27-11.96,12.82
				c-0.04,1.19-0.07,3.02-0.07,5.48c0,2.47,0.02,4.34,0.07,5.62c0.31,8.5,4.29,12.75,11.96,12.75c3.3,0,5.95-0.68,7.93-2.05
				c1.98-1.36,3.35-3.72,4.1-7.07c0.13-0.53,0.33-0.9,0.59-1.12c0.26-0.22,0.62-0.33,1.06-0.33h3.3c0.4,0,0.74,0.12,1.02,0.36
				c0.29,0.24,0.43,0.56,0.43,0.96c-0.13,2.56-0.89,4.96-2.28,7.2c-1.39,2.25-3.45,4.06-6.18,5.45c-2.73,1.39-6.06,2.08-9.98,2.08
				C-666.71,231.74-671.17,230.15-674.23,226.95z"/>
			<path class="st3" d="M-637.99,230.69c-0.26-0.26-0.4-0.57-0.4-0.92l0.13-0.73l16.39-42.75c0.35-0.97,1.06-1.45,2.11-1.45h4.23
				c1.06,0,1.76,0.49,2.11,1.45l16.39,42.75l0.13,0.73c0,0.35-0.14,0.66-0.43,0.92c-0.29,0.26-0.61,0.4-0.96,0.4h-3.11
				c-0.44,0-0.8-0.12-1.09-0.36c-0.29-0.24-0.47-0.5-0.56-0.76l-3.7-9.51h-21.87l-3.63,9.51c-0.35,0.75-0.9,1.12-1.65,1.12h-3.17
				C-637.42,231.08-637.73,230.95-637.99,230.69z M-626.69,214.96h18.11l-9.05-23.72L-626.69,214.96z"/>
			<path class="st3" d="M-589.36,230.65c-0.26-0.29-0.4-0.65-0.4-1.09v-43.15c0-0.48,0.13-0.87,0.4-1.16
				c0.26-0.29,0.62-0.43,1.06-0.43h14.93c6.65,0,11.45,1.49,14.4,4.46s4.47,7.46,4.56,13.45c0.04,1.28,0.07,3,0.07,5.15
				c0,2.16-0.02,3.9-0.07,5.22c-0.09,4.19-0.76,7.59-2.02,10.21c-1.25,2.62-3.23,4.57-5.91,5.85c-2.69,1.28-6.26,1.92-10.71,1.92
				h-15.26C-588.74,231.08-589.1,230.94-589.36,230.65z M-573.37,225.6c3.08,0,5.54-0.43,7.37-1.29c1.83-0.86,3.15-2.2,3.96-4.03
				c0.81-1.83,1.27-4.31,1.35-7.43c0.09-2.64,0.13-4.29,0.13-4.96c0-0.7-0.04-2.33-0.13-4.89c-0.09-4.4-1.13-7.63-3.14-9.68
				c-2-2.05-5.3-3.07-9.88-3.07h-9.85v35.35H-573.37z"/>
			<path class="st3" d="M-543.9,230.65c-0.26-0.29-0.4-0.65-0.4-1.09v-43.15c0-0.48,0.13-0.87,0.4-1.16
				c0.26-0.29,0.62-0.43,1.06-0.43h27.16c0.48,0,0.87,0.14,1.16,0.43c0.29,0.29,0.43,0.67,0.43,1.16v2.38
				c0,0.44-0.14,0.79-0.43,1.06c-0.29,0.26-0.67,0.4-1.16,0.4h-22.53v14.73h21.08c0.48,0,0.87,0.14,1.16,0.43
				c0.29,0.29,0.43,0.67,0.43,1.16v2.25c0,0.44-0.14,0.8-0.43,1.09c-0.29,0.29-0.67,0.43-1.16,0.43h-21.08v15.26h23.06
				c0.48,0,0.87,0.14,1.16,0.43c0.29,0.29,0.43,0.67,0.43,1.16v2.38c0,0.44-0.15,0.8-0.46,1.09c-0.31,0.29-0.68,0.43-1.12,0.43
				h-27.69C-543.29,231.08-543.64,230.94-543.9,230.65z"/>
			<path class="st3" d="M-503.89,230.65c-0.29-0.29-0.43-0.65-0.43-1.09v-43.15c0-0.48,0.13-0.87,0.4-1.16
				c0.26-0.29,0.64-0.43,1.12-0.43h3.11c0.79,0,1.34,0.33,1.65,0.99l14.07,27.02l14.21-27.02c0.35-0.66,0.88-0.99,1.59-0.99h3.11
				c0.48,0,0.86,0.14,1.12,0.43c0.26,0.29,0.4,0.67,0.4,1.16v43.15c0,0.44-0.14,0.8-0.43,1.09c-0.29,0.29-0.65,0.43-1.09,0.43h-3.04
				c-0.44,0-0.79-0.14-1.06-0.43c-0.26-0.29-0.4-0.65-0.4-1.09v-32.84l-11.3,21.87c-0.44,0.92-1.15,1.39-2.11,1.39h-1.98
				c-0.93,0-1.63-0.46-2.12-1.39l-11.23-21.87v32.84c0,0.44-0.14,0.8-0.43,1.09c-0.29,0.29-0.65,0.43-1.09,0.43h-2.97
				C-503.25,231.08-503.61,230.94-503.89,230.65z"/>
			<path class="st3" d="M-439.14,230.65c-0.29-0.29-0.43-0.65-0.43-1.09V213.9l-15.92-26.89c-0.13-0.26-0.2-0.55-0.2-0.86
				c0-0.35,0.13-0.66,0.4-0.92c0.26-0.26,0.57-0.4,0.93-0.4h3.17c0.79,0,1.37,0.38,1.72,1.12l13.08,21.61l13.02-21.61
				c0.44-0.75,1.01-1.12,1.72-1.12h3.17c0.35,0,0.67,0.13,0.96,0.4c0.29,0.26,0.43,0.57,0.43,0.92c0,0.22-0.09,0.51-0.26,0.86
				l-15.92,26.89v15.66c0,0.44-0.14,0.8-0.43,1.09c-0.29,0.29-0.67,0.43-1.16,0.43h-3.17
				C-438.49,231.08-438.86,230.94-439.14,230.65z"/>
		</g>
	</g>
	<g>
		<rect x="-1192.07" y="614.94" class="st4" width="1000.45" height="1001.86"/>
		<path class="st5" d="M-560.25,49.59l-268.02,21.2h0c-14.84,4.53-16.72,23.59-16.72,23.59v59.67
			c2.93,19.52,12.31,23.17,16.23,23.83l1.75,0.14c0,0,0,0,0,0l258.52,20.57c0,0,38.94,3.9,45.94-15.13V64.96
			C-522.56,64.96-524.35,51.51-560.25,49.59z M-597.35,185.7l-227.19-17.65c0,0-14.57,0.56-16.25-17.37V97.18
			c2.21-17.98,22.18-16.84,22.68-16.81c0.01,0,0.01,0,0.01,0l224.39-17.09c37.54,0.56,42.58,16.53,42.58,16.53l0.28,87.96
			C-555.33,187.94-597.35,185.7-597.35,185.7z"/>
		<g>
			<path class="st6" d="M-795.55,122.21h17.62c3.8,4.57,5.69,9.39,5.69,14.46c0,5.9-2.22,10.85-6.67,14.86
				c-4.45,4.01-9.92,6.01-16.42,6.01c-8.44,0-15.61-3.11-21.5-9.33c-5.89-6.22-8.83-13.8-8.83-22.73c0-8.96,3-16.42,8.99-22.38
				c6-5.96,13.49-8.93,22.48-8.93c3.07,0,6.47,0.6,10.2,1.81v17.96c-2.91-1.33-5.57-1.99-7.97-1.99c-4.34,0-7.89,1.31-10.63,3.94
				c-2.75,2.62-4.12,6.03-4.12,10.22c0,4.28,1.28,7.67,3.83,10.17s6,3.76,10.34,3.76c2.76,0,4.14-0.78,4.14-2.34
				c0-1.18-0.91-1.77-2.73-1.77h-4.42V122.21z"/>
			<path class="st6" d="M-737.91,119.16v13.44h-12.07c-1.64,0-2.8,0.24-3.48,0.71s-1.02,1.27-1.02,2.39c0,1.27,0.35,2.1,1.05,2.5
				c0.7,0.4,2.12,0.6,4.28,0.6h12.43v17.25h-14.53c-6.83,0-12.05-1.58-15.67-4.75c-3.61-3.17-5.42-7.75-5.42-13.73v-23.66
				c0-5.78,1.71-10.26,5.12-13.45c3.42-3.18,8.22-4.78,14.41-4.78h16.08v17.34h-11.8c-3.19,0-4.78,1-4.78,3.01
				c0,1.18,0.38,2,1.14,2.46c0.76,0.46,2.11,0.69,4.05,0.69H-737.91z"/>
			<path class="st6" d="M-733.73,156.04v-39.18c0-6.87,2.12-12.37,6.35-16.5s9.88-6.19,16.92-6.19c7.01,0,12.38,2,16.1,6.01
				c3.72,4.01,5.58,9.77,5.58,17.29v38.56h-18.49v-38.56c0-3.69-1.35-5.53-4.05-5.53c-2.61,0-3.92,1.84-3.92,5.53v38.56H-733.73z"/>
			<path class="st6" d="M-650.72,119.16v13.44h-12.07c-1.64,0-2.8,0.24-3.48,0.71s-1.02,1.27-1.02,2.39c0,1.27,0.35,2.1,1.05,2.5
				c0.7,0.4,2.12,0.6,4.28,0.6h12.43v17.25h-14.53c-6.83,0-12.05-1.58-15.67-4.75c-3.61-3.17-5.42-7.75-5.42-13.73v-23.66
				c0-5.78,1.71-10.26,5.12-13.45c3.42-3.18,8.22-4.78,14.41-4.78h16.08v17.34h-11.79c-3.19,0-4.78,1-4.78,3.01
				c0,1.18,0.38,2,1.14,2.46c0.76,0.46,2.11,0.69,4.05,0.69H-650.72z"/>
			<path class="st6" d="M-616.07,95.41v17.2c-1.34-0.44-2.37-0.66-3.1-0.66c-1.4,0-2.6,0.5-3.6,1.5c-1,1-1.5,2.21-1.5,3.63
				c0,1.21,0.55,2.74,1.64,4.6l1.41,2.39c2.55,4.3,3.83,8.46,3.83,12.47c0,5.87-2.15,10.83-6.44,14.9c-4.3,4.07-9.54,6.1-15.73,6.1
				c-2.98,0-5.92-0.66-8.84-1.99v-17.47c1.76,1.09,3.32,1.64,4.69,1.64c1.61,0,2.95-0.45,4.03-1.35c1.08-0.9,1.62-2.03,1.62-3.38
				c0-0.88-0.87-2.81-2.6-5.79c-2.76-4.72-4.14-9.43-4.14-14.15c0-5.69,2.09-10.59,6.26-14.71c4.17-4.11,9.16-6.17,14.96-6.17
				C-621.04,94.17-618.53,94.58-616.07,95.41z"/>
			<path class="st6" d="M-579.88,119.16v13.44h-12.07c-1.64,0-2.8,0.24-3.48,0.71s-1.02,1.27-1.02,2.39c0,1.27,0.35,2.1,1.05,2.5
				c0.7,0.4,2.12,0.6,4.28,0.6h12.43v17.25h-14.53c-6.83,0-12.05-1.58-15.67-4.75c-3.61-3.17-5.42-7.75-5.42-13.73v-23.66
				c0-5.78,1.71-10.26,5.12-13.45c3.42-3.18,8.22-4.78,14.41-4.78h16.08v17.34h-11.79c-3.19,0-4.78,1-4.78,3.01
				c0,1.18,0.38,2,1.14,2.46c0.76,0.46,2.11,0.69,4.05,0.69H-579.88z"/>
		</g>
		<g class="st1">
			<defs>
				<path id="SVGID_1_" d="M-578.08,118.86c0,0-239-7.1-270.44,25.35c-31.44,32.45,152.12,56.45,152.12,56.45l113.58-31.1
					l22.99-19.94L-578.08,118.86z"/>
			</defs>
			<clipPath id="SVGID_2_" class="st7">
				<use xlink:href="#SVGID_1_"  style="overflow:visible;"/>
			</clipPath>
			<g class="st8">
				<path class="st9" d="M-795.55,122.21h17.62c3.8,4.57,5.69,9.39,5.69,14.46c0,5.9-2.22,10.85-6.67,14.86
					c-4.45,4.01-9.92,6.01-16.42,6.01c-8.44,0-15.61-3.11-21.5-9.33c-5.89-6.22-8.83-13.8-8.83-22.73c0-8.96,3-16.42,8.99-22.38
					c6-5.96,13.49-8.93,22.48-8.93c3.07,0,6.47,0.6,10.2,1.81v17.96c-2.91-1.33-5.57-1.99-7.97-1.99c-4.34,0-7.89,1.31-10.63,3.94
					c-2.75,2.62-4.12,6.03-4.12,10.22c0,4.28,1.28,7.67,3.83,10.17s6,3.76,10.34,3.76c2.76,0,4.14-0.78,4.14-2.34
					c0-1.18-0.91-1.77-2.73-1.77h-4.42V122.21z"/>
				<path class="st9" d="M-737.91,119.16v13.44h-12.07c-1.64,0-2.8,0.24-3.48,0.71s-1.02,1.27-1.02,2.39c0,1.27,0.35,2.1,1.05,2.5
					c0.7,0.4,2.12,0.6,4.28,0.6h12.43v17.25h-14.53c-6.83,0-12.05-1.58-15.67-4.75c-3.61-3.17-5.42-7.75-5.42-13.73v-23.66
					c0-5.78,1.71-10.26,5.12-13.45c3.42-3.18,8.22-4.78,14.41-4.78h16.08v17.34h-11.8c-3.19,0-4.78,1-4.78,3.01
					c0,1.18,0.38,2,1.14,2.46c0.76,0.46,2.11,0.69,4.05,0.69H-737.91z"/>
				<path class="st9" d="M-733.73,156.04v-39.18c0-6.87,2.12-12.37,6.35-16.5s9.88-6.19,16.92-6.19c7.01,0,12.38,2,16.1,6.01
					c3.72,4.01,5.58,9.77,5.58,17.29v38.56h-18.49v-38.56c0-3.69-1.35-5.53-4.05-5.53c-2.61,0-3.92,1.84-3.92,5.53v38.56H-733.73z"
					/>
				<path class="st9" d="M-650.72,119.16v13.44h-12.07c-1.64,0-2.8,0.24-3.48,0.71s-1.02,1.27-1.02,2.39c0,1.27,0.35,2.1,1.05,2.5
					c0.7,0.4,2.12,0.6,4.28,0.6h12.43v17.25h-14.53c-6.83,0-12.05-1.58-15.67-4.75c-3.61-3.17-5.42-7.75-5.42-13.73v-23.66
					c0-5.78,1.71-10.26,5.12-13.45c3.42-3.18,8.22-4.78,14.41-4.78h16.08v17.34h-11.79c-3.19,0-4.78,1-4.78,3.01
					c0,1.18,0.38,2,1.14,2.46c0.76,0.46,2.11,0.69,4.05,0.69H-650.72z"/>
				<path class="st9" d="M-616.07,95.41v17.2c-1.34-0.44-2.37-0.66-3.1-0.66c-1.4,0-2.6,0.5-3.6,1.5c-1,1-1.5,2.21-1.5,3.63
					c0,1.21,0.55,2.74,1.64,4.6l1.41,2.39c2.55,4.3,3.83,8.46,3.83,12.47c0,5.87-2.15,10.83-6.44,14.9c-4.3,4.07-9.54,6.1-15.73,6.1
					c-2.98,0-5.92-0.66-8.84-1.99v-17.47c1.76,1.09,3.32,1.64,4.69,1.64c1.61,0,2.95-0.45,4.03-1.35c1.08-0.9,1.62-2.03,1.62-3.38
					c0-0.88-0.87-2.81-2.6-5.79c-2.76-4.72-4.14-9.43-4.14-14.15c0-5.69,2.09-10.59,6.26-14.71c4.17-4.11,9.16-6.17,14.96-6.17
					C-621.04,94.17-618.53,94.58-616.07,95.41z"/>
				<path class="st9" d="M-579.88,119.16v13.44h-12.07c-1.64,0-2.8,0.24-3.48,0.71s-1.02,1.27-1.02,2.39c0,1.27,0.35,2.1,1.05,2.5
					c0.7,0.4,2.12,0.6,4.28,0.6h12.43v17.25h-14.53c-6.83,0-12.05-1.58-15.67-4.75c-3.61-3.17-5.42-7.75-5.42-13.73v-23.66
					c0-5.78,1.71-10.26,5.12-13.45c3.42-3.18,8.22-4.78,14.41-4.78h16.08v17.34h-11.79c-3.19,0-4.78,1-4.78,3.01
					c0,1.18,0.38,2,1.14,2.46c0.76,0.46,2.11,0.69,4.05,0.69H-579.88z"/>
			</g>
		</g>
		<polygon class="st6" points="-676.96,83.2 -667.16,83.2 -664.79,93.84 -667.5,93.84 		"/>
	</g>
	<g id="XMLID_1343_">
		<g id="XMLID_74_">
			<path id="XMLID_76_" class="st6" d="M-644.48-67.88c2.27,0,4.11-1.84,4.11-4.11c0-2.27-1.84-4.11-4.11-4.11h0
				c-2.27,0-4.11,1.84-4.11,4.11C-648.59-69.72-646.75-67.88-644.48-67.88z"/>
			<path id="XMLID_87_" class="st6" d="M-593.58-45.74l-34.55-21.1c-1.94-1.18-4.47-0.57-5.66,1.37c-1.18,1.94-0.57,4.47,1.37,5.66
				l28.8,17.58l-86.97,53.1l-86.97-53.09l86.97-53.09L-660.57-77c1.94,1.18,4.47,0.57,5.66-1.37c1.18-1.94,0.57-4.47-1.37-5.66
				l-32.16-19.64c-1.32-0.8-2.97-0.8-4.29,0l-94.86,57.92c-1.22,0.75-1.97,2.07-1.97,3.5c0,0-0.01,0.01-0.01,0.01v40.52
				c-7.32,2.01-12.71,8.72-12.71,16.66v43.62c0,2.27,1.84,4.11,4.11,4.11h26.33c2.27,0,4.11-1.84,4.11-4.11V14.95
				c0-8.27-5.85-15.21-13.62-16.89v-32.96l28.85,17.62v45.53c0,1.43,0.75,2.76,1.97,3.51l50.59,30.88
				c3.26,1.99,6.91,2.98,10.57,2.98c3.65,0,7.31-0.99,10.57-2.98l50.59-30.88c1.22-0.75,1.97-2.08,1.97-3.51v-47.02l32.66-19.94
				c1.22-0.75,1.97-2.08,1.97-3.51C-591.61-43.67-592.36-45-593.58-45.74z M-794.06,54.45V27h18.1v27.45H-794.06z M-775.95,14.95
				v3.82h-18.1v-3.82c0-4.99,4.06-9.05,9.05-9.05S-775.95,9.96-775.95,14.95z M-634.48,25.93L-646.07,33v-5.71
				c0-2.27-1.84-4.11-4.11-4.11s-4.11,1.84-4.11,4.11v10.74l-28.8,17.58c-3.87,2.36-8.68,2.36-12.56,0l-48.62-29.68v-38.2
				l51.53,31.46c0.66,0.4,1.4,0.6,2.14,0.6c0.74,0,1.49-0.2,2.14-0.6l53.97-32.95V25.93z"/>
			<path id="XMLID_91_" class="st6" d="M-650.18,14.95c1.08,0,2.14-0.44,2.91-1.21c0.77-0.77,1.21-1.83,1.21-2.91
				s-0.44-2.14-1.21-2.91c-0.77-0.77-1.83-1.21-2.91-1.21c-1.09,0-2.14,0.44-2.91,1.21c-0.77,0.77-1.21,1.83-1.21,2.91
				s0.44,2.14,1.21,2.91C-652.32,14.51-651.27,14.95-650.18,14.95z"/>
			<g id="XMLID_817_">
				<path id="XMLID_73_" class="st6" d="M-690.59-38.12c-1.08,0-2.14-0.44-2.91-1.21c-0.77-0.77-1.21-1.83-1.21-2.91
					c0-1.08,0.44-2.14,1.21-2.91c0.77-0.77,1.83-1.21,2.91-1.21c1.08,0,2.14,0.44,2.91,1.21c0.77,0.77,1.21,1.83,1.21,2.91
					c0,1.08-0.44,2.14-1.21,2.91S-689.51-38.12-690.59-38.12z"/>
			</g>
		</g>
	</g>
	<g>
		<g>
			<path class="st3" d="M-948.64,1282.31c-3.06-3.19-4.7-7.57-4.92-13.12c-0.04-1.19-0.07-3.13-0.07-5.81
				c0-2.73,0.02-4.71,0.07-5.95c0.22-5.55,1.86-9.92,4.92-13.12c3.06-3.19,7.52-4.79,13.38-4.79c3.92,0,7.25,0.69,9.98,2.08
				c2.73,1.39,4.79,3.2,6.18,5.45c1.39,2.25,2.15,4.65,2.28,7.2c0,0.4-0.14,0.72-0.43,0.96c-0.29,0.24-0.63,0.36-1.02,0.36h-3.3
				c-0.44,0-0.79-0.11-1.06-0.33c-0.26-0.22-0.46-0.59-0.59-1.12c-0.75-3.39-2.1-5.77-4.06-7.14c-1.96-1.37-4.61-2.05-7.96-2.05
				c-7.66,0-11.65,4.27-11.96,12.82c-0.04,1.19-0.07,3.02-0.07,5.48c0,2.47,0.02,4.34,0.07,5.62c0.31,8.5,4.29,12.75,11.96,12.75
				c3.3,0,5.95-0.68,7.93-2.05c1.98-1.36,3.35-3.72,4.1-7.07c0.13-0.53,0.33-0.9,0.59-1.12c0.26-0.22,0.62-0.33,1.06-0.33h3.3
				c0.4,0,0.74,0.12,1.02,0.36c0.29,0.24,0.43,0.56,0.43,0.96c-0.13,2.56-0.89,4.96-2.28,7.2c-1.39,2.25-3.45,4.06-6.18,5.45
				c-2.73,1.39-6.06,2.08-9.98,2.08C-941.12,1287.1-945.58,1285.5-948.64,1282.31z"/>
			<path class="st3" d="M-907.44,1286.01c-0.26-0.29-0.4-0.65-0.4-1.09v-43.21c0-0.44,0.13-0.8,0.4-1.09
				c0.26-0.29,0.62-0.43,1.06-0.43h3.3c0.44,0,0.79,0.14,1.06,0.43c0.26,0.29,0.4,0.65,0.4,1.09v39.18h22.07
				c0.48,0,0.87,0.14,1.16,0.43c0.29,0.29,0.43,0.65,0.43,1.09v2.51c0,0.44-0.15,0.8-0.46,1.09c-0.31,0.29-0.68,0.43-1.12,0.43
				h-26.83C-906.83,1286.44-907.18,1286.29-907.44,1286.01z"/>
			<path class="st3" d="M-868.19,1282.57c-3.13-3.02-4.78-7.57-4.96-13.64c-0.04-1.32-0.07-3.19-0.07-5.62
				c0-2.42,0.02-4.27,0.07-5.55c0.18-5.99,1.88-10.53,5.12-13.61c3.24-3.08,7.61-4.62,13.12-4.62c5.51,0,9.87,1.54,13.08,4.62
				c3.21,3.08,4.91,7.62,5.09,13.61c0.09,2.56,0.13,4.41,0.13,5.55c0,1.1-0.04,2.97-0.13,5.62c-0.18,6.08-1.82,10.63-4.92,13.64
				c-3.11,3.02-7.52,4.53-13.25,4.53C-860.64,1287.1-865.07,1285.59-868.19,1282.57z M-846.46,1278.41
				c2.11-2.14,3.26-5.41,3.44-9.81c0.09-2.64,0.13-4.4,0.13-5.29c0-0.97-0.04-2.73-0.13-5.29c-0.18-4.4-1.32-7.69-3.44-9.84
				c-2.11-2.16-4.93-3.24-8.46-3.24c-3.52,0-6.35,1.08-8.49,3.24c-2.14,2.16-3.27,5.44-3.4,9.84c-0.04,1.28-0.07,3.04-0.07,5.29
				c0,2.2,0.02,3.96,0.07,5.29c0.13,4.41,1.26,7.68,3.37,9.81c2.11,2.14,4.96,3.21,8.52,3.21
				C-851.39,1281.61-848.57,1280.55-846.46,1278.41z"/>
			<path class="st3" d="M-822.6,1282.51c-3.08-3.06-4.63-7.7-4.63-13.91v-26.83c0-0.48,0.13-0.87,0.4-1.16
				c0.26-0.29,0.62-0.43,1.06-0.43h3.17c0.48,0,0.87,0.14,1.16,0.43c0.29,0.29,0.43,0.67,0.43,1.16v26.96c0,4.32,1,7.53,3.01,9.65
				c2,2.12,4.86,3.17,8.56,3.17c3.66,0,6.49-1.07,8.49-3.2c2-2.14,3.01-5.34,3.01-9.61v-26.96c0-0.48,0.13-0.87,0.4-1.16
				c0.26-0.29,0.64-0.43,1.12-0.43h3.17c0.44,0,0.8,0.14,1.09,0.43c0.29,0.29,0.43,0.67,0.43,1.16v26.83
				c0,6.21-1.53,10.85-4.59,13.91c-3.06,3.06-7.43,4.59-13.12,4.59C-815.14,1287.1-819.52,1285.57-822.6,1282.51z"/>
			<path class="st3" d="M-780.18,1286.01c-0.26-0.29-0.4-0.65-0.4-1.09v-43.15c0-0.48,0.13-0.87,0.4-1.16
				c0.26-0.29,0.62-0.43,1.06-0.43h14.93c6.65,0,11.45,1.49,14.4,4.46c2.95,2.97,4.47,7.46,4.56,13.45c0.04,1.28,0.07,3,0.07,5.15
				c0,2.16-0.02,3.9-0.07,5.22c-0.09,4.19-0.76,7.59-2.02,10.21c-1.26,2.62-3.23,4.57-5.91,5.85c-2.69,1.28-6.26,1.92-10.7,1.92
				h-15.26C-779.57,1286.44-779.92,1286.29-780.18,1286.01z M-764.19,1280.95c3.08,0,5.54-0.43,7.37-1.29
				c1.83-0.86,3.15-2.2,3.96-4.03c0.81-1.83,1.27-4.31,1.35-7.43c0.09-2.64,0.13-4.29,0.13-4.96c0-0.7-0.04-2.33-0.13-4.89
				c-0.09-4.4-1.13-7.63-3.14-9.68c-2-2.05-5.3-3.07-9.88-3.07h-9.85v35.35H-764.19z"/>
			<path class="st3" d="M-724.75,1286.04c-0.26-0.26-0.4-0.57-0.4-0.92l0.13-0.73l16.39-42.75c0.35-0.97,1.06-1.45,2.11-1.45h4.23
				c1.06,0,1.76,0.49,2.11,1.45l16.39,42.75l0.13,0.73c0,0.35-0.14,0.66-0.43,0.92s-0.61,0.4-0.96,0.4h-3.11
				c-0.44,0-0.8-0.12-1.09-0.36c-0.29-0.24-0.47-0.5-0.56-0.76l-3.7-9.51h-21.87l-3.63,9.51c-0.35,0.75-0.9,1.12-1.65,1.12h-3.17
				C-724.18,1286.44-724.48,1286.31-724.75,1286.04z M-713.45,1270.32h18.1l-9.05-23.72L-713.45,1270.32z"/>
			<path class="st3" d="M-674.23,1282.31c-3.06-3.19-4.7-7.57-4.92-13.12c-0.04-1.19-0.07-3.13-0.07-5.81
				c0-2.73,0.02-4.71,0.07-5.95c0.22-5.55,1.86-9.92,4.92-13.12c3.06-3.19,7.52-4.79,13.38-4.79c3.92,0,7.25,0.69,9.98,2.08
				c2.73,1.39,4.79,3.2,6.18,5.45c1.39,2.25,2.15,4.65,2.28,7.2c0,0.4-0.14,0.72-0.43,0.96c-0.29,0.24-0.63,0.36-1.02,0.36h-3.3
				c-0.44,0-0.79-0.11-1.06-0.33c-0.26-0.22-0.46-0.59-0.59-1.12c-0.75-3.39-2.1-5.77-4.06-7.14c-1.96-1.37-4.61-2.05-7.96-2.05
				c-7.66,0-11.65,4.27-11.96,12.82c-0.04,1.19-0.07,3.02-0.07,5.48c0,2.47,0.02,4.34,0.07,5.62c0.31,8.5,4.29,12.75,11.96,12.75
				c3.3,0,5.95-0.68,7.93-2.05c1.98-1.36,3.35-3.72,4.1-7.07c0.13-0.53,0.33-0.9,0.59-1.12c0.26-0.22,0.62-0.33,1.06-0.33h3.3
				c0.4,0,0.74,0.12,1.02,0.36c0.29,0.24,0.43,0.56,0.43,0.96c-0.13,2.56-0.89,4.96-2.28,7.2c-1.39,2.25-3.45,4.06-6.18,5.45
				c-2.73,1.39-6.06,2.08-9.98,2.08C-666.71,1287.1-671.17,1285.5-674.23,1282.31z"/>
			<path class="st3" d="M-637.99,1286.04c-0.26-0.26-0.4-0.57-0.4-0.92l0.13-0.73l16.39-42.75c0.35-0.97,1.06-1.45,2.11-1.45h4.23
				c1.06,0,1.76,0.49,2.11,1.45l16.39,42.75l0.13,0.73c0,0.35-0.14,0.66-0.43,0.92c-0.29,0.26-0.61,0.4-0.96,0.4h-3.11
				c-0.44,0-0.8-0.12-1.09-0.36c-0.29-0.24-0.47-0.5-0.56-0.76l-3.7-9.51h-21.87l-3.63,9.51c-0.35,0.75-0.9,1.12-1.65,1.12h-3.17
				C-637.42,1286.44-637.73,1286.31-637.99,1286.04z M-626.69,1270.32h18.11l-9.05-23.72L-626.69,1270.32z"/>
			<path class="st3" d="M-589.36,1286.01c-0.26-0.29-0.4-0.65-0.4-1.09v-43.15c0-0.48,0.13-0.87,0.4-1.16
				c0.26-0.29,0.62-0.43,1.06-0.43h14.93c6.65,0,11.45,1.49,14.4,4.46s4.47,7.46,4.56,13.45c0.04,1.28,0.07,3,0.07,5.15
				c0,2.16-0.02,3.9-0.07,5.22c-0.09,4.19-0.76,7.59-2.02,10.21c-1.25,2.62-3.23,4.57-5.91,5.85c-2.69,1.28-6.26,1.92-10.71,1.92
				h-15.26C-588.74,1286.44-589.1,1286.29-589.36,1286.01z M-573.37,1280.95c3.08,0,5.54-0.43,7.37-1.29
				c1.83-0.86,3.15-2.2,3.96-4.03c0.81-1.83,1.27-4.31,1.35-7.43c0.09-2.64,0.13-4.29,0.13-4.96c0-0.7-0.04-2.33-0.13-4.89
				c-0.09-4.4-1.13-7.63-3.14-9.68c-2-2.05-5.3-3.07-9.88-3.07h-9.85v35.35H-573.37z"/>
			<path class="st3" d="M-543.9,1286.01c-0.26-0.29-0.4-0.65-0.4-1.09v-43.15c0-0.48,0.13-0.87,0.4-1.16
				c0.26-0.29,0.62-0.43,1.06-0.43h27.16c0.48,0,0.87,0.14,1.16,0.43c0.29,0.29,0.43,0.67,0.43,1.16v2.38
				c0,0.44-0.14,0.79-0.43,1.06c-0.29,0.26-0.67,0.4-1.16,0.4h-22.53v14.73h21.08c0.48,0,0.87,0.14,1.16,0.43
				c0.29,0.29,0.43,0.67,0.43,1.16v2.25c0,0.44-0.14,0.8-0.43,1.09c-0.29,0.29-0.67,0.43-1.16,0.43h-21.08v15.26h23.06
				c0.48,0,0.87,0.14,1.16,0.43c0.29,0.29,0.43,0.67,0.43,1.16v2.38c0,0.44-0.15,0.8-0.46,1.09c-0.31,0.29-0.68,0.43-1.12,0.43
				h-27.69C-543.29,1286.44-543.64,1286.29-543.9,1286.01z"/>
			<path class="st3" d="M-503.89,1286.01c-0.29-0.29-0.43-0.65-0.43-1.09v-43.15c0-0.48,0.13-0.87,0.4-1.16
				c0.26-0.29,0.64-0.43,1.12-0.43h3.11c0.79,0,1.34,0.33,1.65,0.99l14.07,27.02l14.21-27.02c0.35-0.66,0.88-0.99,1.59-0.99h3.11
				c0.48,0,0.86,0.14,1.12,0.43c0.26,0.29,0.4,0.67,0.4,1.16v43.15c0,0.44-0.14,0.8-0.43,1.09c-0.29,0.29-0.65,0.43-1.09,0.43h-3.04
				c-0.44,0-0.79-0.14-1.06-0.43c-0.26-0.29-0.4-0.65-0.4-1.09v-32.84l-11.3,21.87c-0.44,0.92-1.15,1.39-2.11,1.39h-1.98
				c-0.93,0-1.63-0.46-2.12-1.39l-11.23-21.87v32.84c0,0.44-0.14,0.8-0.43,1.09c-0.29,0.29-0.65,0.43-1.09,0.43h-2.97
				C-503.25,1286.44-503.61,1286.29-503.89,1286.01z"/>
			<path class="st3" d="M-439.14,1286.01c-0.29-0.29-0.43-0.65-0.43-1.09v-15.66l-15.92-26.89c-0.13-0.26-0.2-0.55-0.2-0.86
				c0-0.35,0.13-0.66,0.4-0.92c0.26-0.26,0.57-0.4,0.93-0.4h3.17c0.79,0,1.37,0.38,1.72,1.12l13.08,21.61l13.02-21.61
				c0.44-0.75,1.01-1.12,1.72-1.12h3.17c0.35,0,0.67,0.13,0.96,0.4c0.29,0.26,0.43,0.57,0.43,0.92c0,0.22-0.09,0.51-0.26,0.86
				l-15.92,26.89v15.66c0,0.44-0.14,0.8-0.43,1.09c-0.29,0.29-0.67,0.43-1.16,0.43h-3.17
				C-438.49,1286.44-438.86,1286.29-439.14,1286.01z"/>
		</g>
	</g>
	<g>
		<path class="st5" d="M-560.25,1104.94l-268.02,21.2h0c-14.84,4.53-16.72,23.59-16.72,23.59v59.67
			c2.93,19.52,12.31,23.17,16.23,23.83l1.75,0.14c0,0,0,0,0,0l258.52,20.57c0,0,38.94,3.9,45.94-15.13v-118.5
			C-522.56,1120.32-524.35,1106.86-560.25,1104.94z M-597.35,1241.05l-227.19-17.65c0,0-14.57,0.56-16.25-17.37v-53.51
			c2.21-17.98,22.18-16.84,22.68-16.81c0.01,0,0.01,0,0.01,0l224.39-17.09c37.54,0.56,42.58,16.53,42.58,16.53l0.28,87.96
			C-555.33,1243.3-597.35,1241.05-597.35,1241.05z"/>
		<g>
			<path class="st6" d="M-795.55,1177.56h17.62c3.8,4.57,5.69,9.39,5.69,14.46c0,5.9-2.22,10.85-6.67,14.86
				c-4.45,4.01-9.92,6.01-16.42,6.01c-8.44,0-15.61-3.11-21.5-9.33c-5.89-6.22-8.83-13.8-8.83-22.73c0-8.96,3-16.42,8.99-22.38
				c6-5.96,13.49-8.93,22.48-8.93c3.07,0,6.47,0.6,10.2,1.81v17.96c-2.91-1.33-5.57-1.99-7.97-1.99c-4.34,0-7.89,1.31-10.63,3.94
				c-2.75,2.62-4.12,6.03-4.12,10.22c0,4.28,1.28,7.67,3.83,10.17s6,3.76,10.34,3.76c2.76,0,4.14-0.78,4.14-2.34
				c0-1.18-0.91-1.77-2.73-1.77h-4.42V1177.56z"/>
			<path class="st6" d="M-737.91,1174.51v13.44h-12.07c-1.64,0-2.8,0.24-3.48,0.71s-1.02,1.27-1.02,2.39c0,1.27,0.35,2.1,1.05,2.5
				c0.7,0.4,2.12,0.6,4.28,0.6h12.43v17.25h-14.53c-6.83,0-12.05-1.58-15.67-4.75c-3.61-3.17-5.42-7.75-5.42-13.73v-23.66
				c0-5.78,1.71-10.26,5.12-13.45c3.42-3.18,8.22-4.78,14.41-4.78h16.08v17.34h-11.8c-3.19,0-4.78,1-4.78,3.01
				c0,1.18,0.38,2,1.14,2.46c0.76,0.46,2.11,0.69,4.05,0.69H-737.91z"/>
			<path class="st6" d="M-733.73,1211.39v-39.18c0-6.87,2.12-12.37,6.35-16.5s9.88-6.19,16.92-6.19c7.01,0,12.38,2,16.1,6.01
				c3.72,4.01,5.58,9.77,5.58,17.29v38.56h-18.49v-38.56c0-3.69-1.35-5.53-4.05-5.53c-2.61,0-3.92,1.84-3.92,5.53v38.56H-733.73z"/>
			<path class="st6" d="M-650.72,1174.51v13.44h-12.07c-1.64,0-2.8,0.24-3.48,0.71s-1.02,1.27-1.02,2.39c0,1.27,0.35,2.1,1.05,2.5
				c0.7,0.4,2.12,0.6,4.28,0.6h12.43v17.25h-14.53c-6.83,0-12.05-1.58-15.67-4.75c-3.61-3.17-5.42-7.75-5.42-13.73v-23.66
				c0-5.78,1.71-10.26,5.12-13.45c3.42-3.18,8.22-4.78,14.41-4.78h16.08v17.34h-11.79c-3.19,0-4.78,1-4.78,3.01
				c0,1.18,0.38,2,1.14,2.46c0.76,0.46,2.11,0.69,4.05,0.69H-650.72z"/>
			<path class="st6" d="M-616.07,1150.76v17.2c-1.34-0.44-2.37-0.66-3.1-0.66c-1.4,0-2.6,0.5-3.6,1.5c-1,1-1.5,2.21-1.5,3.63
				c0,1.21,0.55,2.74,1.64,4.6l1.41,2.39c2.55,4.3,3.83,8.46,3.83,12.47c0,5.87-2.15,10.83-6.44,14.9c-4.3,4.07-9.54,6.1-15.73,6.1
				c-2.98,0-5.92-0.66-8.84-1.99v-17.47c1.76,1.09,3.32,1.64,4.69,1.64c1.61,0,2.95-0.45,4.03-1.35c1.08-0.9,1.62-2.03,1.62-3.38
				c0-0.88-0.87-2.81-2.6-5.79c-2.76-4.72-4.14-9.43-4.14-14.15c0-5.69,2.09-10.59,6.26-14.71c4.17-4.11,9.16-6.17,14.96-6.17
				C-621.04,1149.52-618.53,1149.94-616.07,1150.76z"/>
			<path class="st6" d="M-579.88,1174.51v13.44h-12.07c-1.64,0-2.8,0.24-3.48,0.71s-1.02,1.27-1.02,2.39c0,1.27,0.35,2.1,1.05,2.5
				c0.7,0.4,2.12,0.6,4.28,0.6h12.43v17.25h-14.53c-6.83,0-12.05-1.58-15.67-4.75c-3.61-3.17-5.42-7.75-5.42-13.73v-23.66
				c0-5.78,1.71-10.26,5.12-13.45c3.42-3.18,8.22-4.78,14.41-4.78h16.08v17.34h-11.79c-3.19,0-4.78,1-4.78,3.01
				c0,1.18,0.38,2,1.14,2.46c0.76,0.46,2.11,0.69,4.05,0.69H-579.88z"/>
		</g>
		<g class="st1">
			<defs>
				<path id="SVGID_3_" d="M-578.08,1174.21c0,0-239-7.1-270.44,25.35c-31.44,32.45,152.12,56.45,152.12,56.45l113.58-31.1
					l22.99-19.94L-578.08,1174.21z"/>
			</defs>
			<clipPath id="SVGID_4_" class="st7">
				<use xlink:href="#SVGID_3_"  style="overflow:visible;"/>
			</clipPath>
			<g class="st10">
				<path class="st9" d="M-795.55,1177.56h17.62c3.8,4.57,5.69,9.39,5.69,14.46c0,5.9-2.22,10.85-6.67,14.86
					c-4.45,4.01-9.92,6.01-16.42,6.01c-8.44,0-15.61-3.11-21.5-9.33c-5.89-6.22-8.83-13.8-8.83-22.73c0-8.96,3-16.42,8.99-22.38
					c6-5.96,13.49-8.93,22.48-8.93c3.07,0,6.47,0.6,10.2,1.81v17.96c-2.91-1.33-5.57-1.99-7.97-1.99c-4.34,0-7.89,1.31-10.63,3.94
					c-2.75,2.62-4.12,6.03-4.12,10.22c0,4.28,1.28,7.67,3.83,10.17s6,3.76,10.34,3.76c2.76,0,4.14-0.78,4.14-2.34
					c0-1.18-0.91-1.77-2.73-1.77h-4.42V1177.56z"/>
				<path class="st9" d="M-737.91,1174.51v13.44h-12.07c-1.64,0-2.8,0.24-3.48,0.71s-1.02,1.27-1.02,2.39c0,1.27,0.35,2.1,1.05,2.5
					c0.7,0.4,2.12,0.6,4.28,0.6h12.43v17.25h-14.53c-6.83,0-12.05-1.58-15.67-4.75c-3.61-3.17-5.42-7.75-5.42-13.73v-23.66
					c0-5.78,1.71-10.26,5.12-13.45c3.42-3.18,8.22-4.78,14.41-4.78h16.08v17.34h-11.8c-3.19,0-4.78,1-4.78,3.01
					c0,1.18,0.38,2,1.14,2.46c0.76,0.46,2.11,0.69,4.05,0.69H-737.91z"/>
				<path class="st9" d="M-733.73,1211.39v-39.18c0-6.87,2.12-12.37,6.35-16.5s9.88-6.19,16.92-6.19c7.01,0,12.38,2,16.1,6.01
					c3.72,4.01,5.58,9.77,5.58,17.29v38.56h-18.49v-38.56c0-3.69-1.35-5.53-4.05-5.53c-2.61,0-3.92,1.84-3.92,5.53v38.56H-733.73z"
					/>
				<path class="st9" d="M-650.72,1174.51v13.44h-12.07c-1.64,0-2.8,0.24-3.48,0.71s-1.02,1.27-1.02,2.39c0,1.27,0.35,2.1,1.05,2.5
					c0.7,0.4,2.12,0.6,4.28,0.6h12.43v17.25h-14.53c-6.83,0-12.05-1.58-15.67-4.75c-3.61-3.17-5.42-7.75-5.42-13.73v-23.66
					c0-5.78,1.71-10.26,5.12-13.45c3.42-3.18,8.22-4.78,14.41-4.78h16.08v17.34h-11.79c-3.19,0-4.78,1-4.78,3.01
					c0,1.18,0.38,2,1.14,2.46c0.76,0.46,2.11,0.69,4.05,0.69H-650.72z"/>
				<path class="st9" d="M-616.07,1150.76v17.2c-1.34-0.44-2.37-0.66-3.1-0.66c-1.4,0-2.6,0.5-3.6,1.5c-1,1-1.5,2.21-1.5,3.63
					c0,1.21,0.55,2.74,1.64,4.6l1.41,2.39c2.55,4.3,3.83,8.46,3.83,12.47c0,5.87-2.15,10.83-6.44,14.9c-4.3,4.07-9.54,6.1-15.73,6.1
					c-2.98,0-5.92-0.66-8.84-1.99v-17.47c1.76,1.09,3.32,1.64,4.69,1.64c1.61,0,2.95-0.45,4.03-1.35c1.08-0.9,1.62-2.03,1.62-3.38
					c0-0.88-0.87-2.81-2.6-5.79c-2.76-4.72-4.14-9.43-4.14-14.15c0-5.69,2.09-10.59,6.26-14.71c4.17-4.11,9.16-6.17,14.96-6.17
					C-621.04,1149.52-618.53,1149.94-616.07,1150.76z"/>
				<path class="st9" d="M-579.88,1174.51v13.44h-12.07c-1.64,0-2.8,0.24-3.48,0.71s-1.02,1.27-1.02,2.39c0,1.27,0.35,2.1,1.05,2.5
					c0.7,0.4,2.12,0.6,4.28,0.6h12.43v17.25h-14.53c-6.83,0-12.05-1.58-15.67-4.75c-3.61-3.17-5.42-7.75-5.42-13.73v-23.66
					c0-5.78,1.71-10.26,5.12-13.45c3.42-3.18,8.22-4.78,14.41-4.78h16.08v17.34h-11.79c-3.19,0-4.78,1-4.78,3.01
					c0,1.18,0.38,2,1.14,2.46c0.76,0.46,2.11,0.69,4.05,0.69H-579.88z"/>
			</g>
		</g>
		<polygon class="st6" points="-676.96,1138.55 -667.16,1138.55 -664.79,1149.2 -667.5,1149.2 		"/>
	</g>
	<g id="XMLID_1_">
		<g id="XMLID_8_">
			<path id="XMLID_11_" class="st11" d="M-771.84,1113.92h-26.33v-43.62c0-7.27,5.9-13.17,13.17-13.17l0,0
				c7.27,0,13.17,5.9,13.17,13.17V1113.92z"/>
			<path id="XMLID_10_" class="st0" d="M-748.38,1035.6v47.99l50.59,30.88c5.17,3.16,11.67,3.16,16.84,0l50.59-30.88v-47.99"/>
			<path id="XMLID_9_" class="st11" d="M-595.73,1013.12l-94.86,57.92l-94.86-57.92l94.86-57.92L-595.73,1013.12z"/>
		</g>
		<g id="XMLID_2_">
			<path id="XMLID_7_" class="st6" d="M-644.48,987.47c2.27,0,4.11-1.84,4.11-4.11s-1.84-4.11-4.11-4.11h0
				c-2.27,0-4.11,1.84-4.11,4.11S-646.75,987.47-644.48,987.47z"/>
			<path id="XMLID_6_" class="st6" d="M-593.58,1009.61l-34.55-21.1c-1.94-1.18-4.47-0.57-5.66,1.37s-0.57,4.47,1.37,5.66
				l28.8,17.58l-86.97,53.1l-86.97-53.09l86.97-53.09l30.02,18.33c1.94,1.18,4.47,0.57,5.66-1.37c1.18-1.94,0.57-4.47-1.37-5.66
				l-32.16-19.64c-1.32-0.8-2.97-0.8-4.29,0l-94.86,57.92c-1.22,0.75-1.97,2.07-1.97,3.5c0,0-0.01,0.01-0.01,0.01v40.52
				c-7.32,2.01-12.71,8.72-12.71,16.66v43.62c0,2.27,1.84,4.11,4.11,4.11h26.33c2.27,0,4.11-1.84,4.11-4.11v-43.62
				c0-8.27-5.85-15.21-13.62-16.89v-32.96l28.85,17.62v45.53c0,1.43,0.75,2.76,1.97,3.51l50.59,30.88
				c3.26,1.99,6.91,2.98,10.57,2.98c3.65,0,7.31-0.99,10.57-2.98l50.59-30.88c1.22-0.75,1.97-2.08,1.97-3.51v-47.02l32.66-19.94
				c1.22-0.75,1.97-2.08,1.97-3.51C-591.61,1011.69-592.36,1010.36-593.58,1009.61z M-794.06,1109.8v-27.45h18.1v27.45H-794.06z
				 M-775.95,1070.3v3.82h-18.1v-3.82c0-4.99,4.06-9.05,9.05-9.05S-775.95,1065.31-775.95,1070.3z M-634.48,1081.28l-11.59,7.07
				v-5.71c0-2.27-1.84-4.11-4.11-4.11s-4.11,1.84-4.11,4.11v10.74l-28.8,17.58c-3.87,2.36-8.68,2.36-12.56,0l-48.62-29.68v-38.2
				l51.53,31.46c0.66,0.4,1.4,0.6,2.14,0.6c0.74,0,1.49-0.2,2.14-0.6l53.97-32.95V1081.28z"/>
			<path id="XMLID_5_" class="st6" d="M-650.18,1070.3c1.08,0,2.14-0.44,2.91-1.21c0.77-0.77,1.21-1.83,1.21-2.91
				s-0.44-2.14-1.21-2.91c-0.77-0.77-1.83-1.21-2.91-1.21c-1.09,0-2.14,0.44-2.91,1.21c-0.77,0.77-1.21,1.83-1.21,2.91
				s0.44,2.14,1.21,2.91C-652.32,1069.86-651.27,1070.3-650.18,1070.3z"/>
			<g id="XMLID_3_">
				<path id="XMLID_4_" class="st6" d="M-690.59,1017.24c-1.08,0-2.14-0.44-2.91-1.21c-0.77-0.77-1.21-1.83-1.21-2.91
					c0-1.08,0.44-2.14,1.21-2.91c0.77-0.77,1.83-1.21,2.91-1.21c1.08,0,2.14,0.44,2.91,1.21c0.77,0.77,1.21,1.83,1.21,2.91
					c0,1.08-0.44,2.14-1.21,2.91C-688.45,1016.8-689.51,1017.24-690.59,1017.24z"/>
			</g>
		</g>
	</g>
	<g>
		<path class="st5" d="M498.62-33.61L230.6-12.41h0c-14.84,4.53-16.72,23.59-16.72,23.59v59.67c2.93,19.52,12.31,23.17,16.23,23.83
			l1.75,0.14c0,0,0,0,0,0l258.52,20.57c0,0,38.94,3.9,45.94-15.13v-118.5C536.32-18.23,534.52-31.69,498.62-33.61z M461.52,102.51
			L234.33,84.86c0,0-14.57,0.56-16.25-17.37V13.98C220.3-4,240.27-2.86,240.77-2.83c0.01,0,0.01,0,0.01,0l224.39-17.09
			c37.54,0.56,42.58,16.53,42.58,16.53l0.28,87.96C503.54,104.75,461.52,102.51,461.52,102.51z"/>
		<g>
			<path class="st6" d="M263.32,39.01h17.62c3.79,4.57,5.69,9.39,5.69,14.46c0,5.9-2.22,10.85-6.67,14.86
				c-4.45,4.01-9.92,6.01-16.42,6.01c-8.44,0-15.61-3.11-21.5-9.33c-5.89-6.22-8.84-13.8-8.84-22.73c0-8.96,3-16.42,9-22.38
				c6-5.96,13.49-8.93,22.47-8.93c3.07,0,6.47,0.6,10.2,1.81v17.96c-2.92-1.33-5.57-1.99-7.97-1.99c-4.34,0-7.89,1.31-10.63,3.94
				c-2.75,2.62-4.12,6.03-4.12,10.22c0,4.28,1.27,7.67,3.83,10.17c2.55,2.51,6,3.76,10.34,3.76c2.76,0,4.14-0.78,4.14-2.34
				c0-1.18-0.91-1.77-2.73-1.77h-4.42V39.01z"/>
			<path class="st6" d="M320.97,35.96V49.4H308.9c-1.64,0-2.8,0.24-3.48,0.71c-0.68,0.47-1.03,1.27-1.03,2.39
				c0,1.27,0.35,2.1,1.05,2.5c0.7,0.4,2.12,0.6,4.28,0.6h12.43v17.25h-14.53c-6.83,0-12.05-1.58-15.67-4.75
				c-3.61-3.17-5.42-7.75-5.42-13.73V30.7c0-5.78,1.71-10.26,5.12-13.44c3.42-3.18,8.22-4.78,14.41-4.78h16.08v17.34h-11.79
				c-3.19,0-4.78,1-4.78,3.01c0,1.18,0.38,2,1.14,2.45c0.76,0.46,2.11,0.69,4.05,0.69H320.97z"/>
			<path class="st6" d="M325.15,72.84V33.66c0-6.87,2.12-12.37,6.35-16.5c4.24-4.13,9.88-6.19,16.92-6.19c7.01,0,12.38,2,16.1,6.01
				c3.72,4.01,5.58,9.77,5.58,17.29v38.56h-18.49V34.28c0-3.69-1.35-5.53-4.05-5.53c-2.61,0-3.92,1.84-3.92,5.53v38.56H325.15z"/>
			<path class="st6" d="M408.16,35.96V49.4h-12.07c-1.64,0-2.8,0.24-3.48,0.71c-0.68,0.47-1.03,1.27-1.03,2.39
				c0,1.27,0.35,2.1,1.05,2.5c0.7,0.4,2.12,0.6,4.28,0.6h12.43v17.25h-14.53c-6.83,0-12.05-1.58-15.67-4.75
				c-3.61-3.17-5.42-7.75-5.42-13.73V30.7c0-5.78,1.71-10.26,5.12-13.44c3.42-3.18,8.22-4.78,14.41-4.78h16.08v17.34h-11.79
				c-3.19,0-4.78,1-4.78,3.01c0,1.18,0.38,2,1.14,2.45c0.76,0.46,2.11,0.69,4.05,0.69H408.16z"/>
			<path class="st6" d="M442.8,12.21v17.2c-1.34-0.44-2.37-0.66-3.1-0.66c-1.4,0-2.6,0.5-3.6,1.5c-1,1-1.5,2.21-1.5,3.63
				c0,1.21,0.55,2.74,1.64,4.6l1.41,2.39c2.55,4.31,3.83,8.46,3.83,12.47c0,5.87-2.15,10.84-6.44,14.9c-4.3,4.07-9.54,6.1-15.74,6.1
				c-2.98,0-5.92-0.66-8.83-1.99V54.89c1.76,1.09,3.33,1.64,4.69,1.64c1.61,0,2.95-0.45,4.03-1.35c1.08-0.9,1.62-2.03,1.62-3.38
				c0-0.88-0.87-2.82-2.6-5.79c-2.76-4.72-4.14-9.43-4.14-14.15c0-5.69,2.09-10.59,6.26-14.7c4.17-4.11,9.16-6.17,14.96-6.17
				C437.84,10.97,440.34,11.39,442.8,12.21z"/>
			<path class="st6" d="M479,35.96V49.4h-12.07c-1.64,0-2.8,0.24-3.48,0.71c-0.68,0.47-1.03,1.27-1.03,2.39
				c0,1.27,0.35,2.1,1.05,2.5c0.7,0.4,2.12,0.6,4.28,0.6h12.43v17.25h-14.53c-6.83,0-12.05-1.58-15.67-4.75
				c-3.61-3.17-5.42-7.75-5.42-13.73V30.7c0-5.78,1.71-10.26,5.12-13.44c3.42-3.18,8.22-4.78,14.41-4.78h16.08v17.34h-11.79
				c-3.19,0-4.78,1-4.78,3.01c0,1.18,0.38,2,1.14,2.45c0.76,0.46,2.11,0.69,4.05,0.69H479z"/>
		</g>
		<g class="st1">
			<defs>
				<path id="SVGID_5_" d="M480.8,35.66c0,0-239-7.1-270.44,25.35c-31.44,32.45,152.12,56.45,152.12,56.45l113.58-31.1l22.99-19.94
					L480.8,35.66z"/>
			</defs>
			<clipPath id="SVGID_6_" class="st7">
				<use xlink:href="#SVGID_5_"  style="overflow:visible;"/>
			</clipPath>
			<g class="st12">
				<path class="st9" d="M263.32,39.01h17.62c3.79,4.57,5.69,9.39,5.69,14.46c0,5.9-2.22,10.85-6.67,14.86
					c-4.45,4.01-9.92,6.01-16.42,6.01c-8.44,0-15.61-3.11-21.5-9.33c-5.89-6.22-8.84-13.8-8.84-22.73c0-8.96,3-16.42,9-22.38
					c6-5.96,13.49-8.93,22.47-8.93c3.07,0,6.47,0.6,10.2,1.81v17.96c-2.92-1.33-5.57-1.99-7.97-1.99c-4.34,0-7.89,1.31-10.63,3.94
					c-2.75,2.62-4.12,6.03-4.12,10.22c0,4.28,1.27,7.67,3.83,10.17c2.55,2.51,6,3.76,10.34,3.76c2.76,0,4.14-0.78,4.14-2.34
					c0-1.18-0.91-1.77-2.73-1.77h-4.42V39.01z"/>
				<path class="st9" d="M320.97,35.96V49.4H308.9c-1.64,0-2.8,0.24-3.48,0.71c-0.68,0.47-1.03,1.27-1.03,2.39
					c0,1.27,0.35,2.1,1.05,2.5c0.7,0.4,2.12,0.6,4.28,0.6h12.43v17.25h-14.53c-6.83,0-12.05-1.58-15.67-4.75
					c-3.61-3.17-5.42-7.75-5.42-13.73V30.7c0-5.78,1.71-10.26,5.12-13.44c3.42-3.18,8.22-4.78,14.41-4.78h16.08v17.34h-11.79
					c-3.19,0-4.78,1-4.78,3.01c0,1.18,0.38,2,1.14,2.45c0.76,0.46,2.11,0.69,4.05,0.69H320.97z"/>
				<path class="st9" d="M325.15,72.84V33.66c0-6.87,2.12-12.37,6.35-16.5c4.24-4.13,9.88-6.19,16.92-6.19c7.01,0,12.38,2,16.1,6.01
					c3.72,4.01,5.58,9.77,5.58,17.29v38.56h-18.49V34.28c0-3.69-1.35-5.53-4.05-5.53c-2.61,0-3.92,1.84-3.92,5.53v38.56H325.15z"/>
				<path class="st9" d="M408.16,35.96V49.4h-12.07c-1.64,0-2.8,0.24-3.48,0.71c-0.68,0.47-1.03,1.27-1.03,2.39
					c0,1.27,0.35,2.1,1.05,2.5c0.7,0.4,2.12,0.6,4.28,0.6h12.43v17.25h-14.53c-6.83,0-12.05-1.58-15.67-4.75
					c-3.61-3.17-5.42-7.75-5.42-13.73V30.7c0-5.78,1.71-10.26,5.12-13.44c3.42-3.18,8.22-4.78,14.41-4.78h16.08v17.34h-11.79
					c-3.19,0-4.78,1-4.78,3.01c0,1.18,0.38,2,1.14,2.45c0.76,0.46,2.11,0.69,4.05,0.69H408.16z"/>
				<path class="st9" d="M442.8,12.21v17.2c-1.34-0.44-2.37-0.66-3.1-0.66c-1.4,0-2.6,0.5-3.6,1.5c-1,1-1.5,2.21-1.5,3.63
					c0,1.21,0.55,2.74,1.64,4.6l1.41,2.39c2.55,4.31,3.83,8.46,3.83,12.47c0,5.87-2.15,10.84-6.44,14.9
					c-4.3,4.07-9.54,6.1-15.74,6.1c-2.98,0-5.92-0.66-8.83-1.99V54.89c1.76,1.09,3.33,1.64,4.69,1.64c1.61,0,2.95-0.45,4.03-1.35
					c1.08-0.9,1.62-2.03,1.62-3.38c0-0.88-0.87-2.82-2.6-5.79c-2.76-4.72-4.14-9.43-4.14-14.15c0-5.69,2.09-10.59,6.26-14.7
					c4.17-4.11,9.16-6.17,14.96-6.17C437.84,10.97,440.34,11.39,442.8,12.21z"/>
				<path class="st9" d="M479,35.96V49.4h-12.07c-1.64,0-2.8,0.24-3.48,0.71c-0.68,0.47-1.03,1.27-1.03,2.39
					c0,1.27,0.35,2.1,1.05,2.5c0.7,0.4,2.12,0.6,4.28,0.6h12.43v17.25h-14.53c-6.83,0-12.05-1.58-15.67-4.75
					c-3.61-3.17-5.42-7.75-5.42-13.73V30.7c0-5.78,1.71-10.26,5.12-13.44c3.42-3.18,8.22-4.78,14.41-4.78h16.08v17.34h-11.79
					c-3.19,0-4.78,1-4.78,3.01c0,1.18,0.38,2,1.14,2.45c0.76,0.46,2.11,0.69,4.05,0.69H479z"/>
			</g>
		</g>
		<polygon class="st6" points="381.92,0 391.72,0 394.09,10.65 391.38,10.65 		"/>
	</g>
	<g>
		<g>
			<path class="st3" d="M236.33,146.54c-3.06-3.19-4.7-7.57-4.92-13.12c-0.04-1.19-0.07-3.13-0.07-5.81c0-2.73,0.02-4.71,0.07-5.95
				c0.22-5.55,1.86-9.92,4.92-13.12c3.06-3.19,7.52-4.79,13.38-4.79c3.92,0,7.25,0.69,9.98,2.08c2.73,1.39,4.79,3.2,6.18,5.45
				c1.39,2.25,2.15,4.65,2.28,7.2c0,0.4-0.14,0.72-0.43,0.96c-0.29,0.24-0.63,0.36-1.02,0.36h-3.3c-0.44,0-0.79-0.11-1.06-0.33
				c-0.26-0.22-0.46-0.59-0.59-1.12c-0.75-3.39-2.1-5.77-4.06-7.14c-1.96-1.37-4.61-2.05-7.96-2.05c-7.66,0-11.65,4.27-11.96,12.82
				c-0.04,1.19-0.07,3.02-0.07,5.48c0,2.47,0.02,4.34,0.07,5.62c0.31,8.5,4.29,12.75,11.96,12.75c3.3,0,5.95-0.68,7.93-2.05
				c1.98-1.36,3.35-3.72,4.1-7.07c0.13-0.53,0.33-0.9,0.59-1.12c0.26-0.22,0.62-0.33,1.06-0.33h3.3c0.4,0,0.74,0.12,1.02,0.36
				c0.29,0.24,0.43,0.56,0.43,0.96c-0.13,2.56-0.89,4.96-2.28,7.2c-1.39,2.25-3.45,4.06-6.18,5.45c-2.73,1.39-6.06,2.08-9.98,2.08
				C243.85,151.33,239.39,149.73,236.33,146.54z"/>
			<path class="st3" d="M277.53,150.24c-0.26-0.29-0.4-0.65-0.4-1.09v-43.21c0-0.44,0.13-0.8,0.4-1.09
				c0.26-0.29,0.62-0.43,1.06-0.43h3.3c0.44,0,0.79,0.14,1.06,0.43c0.26,0.29,0.4,0.65,0.4,1.09v39.18h22.07
				c0.48,0,0.87,0.14,1.16,0.43c0.29,0.29,0.43,0.65,0.43,1.09v2.51c0,0.44-0.16,0.8-0.46,1.09c-0.31,0.29-0.68,0.43-1.12,0.43
				h-26.83C278.14,150.67,277.79,150.53,277.53,150.24z"/>
			<path class="st3" d="M316.77,146.81c-3.13-3.02-4.78-7.57-4.96-13.64c-0.04-1.32-0.07-3.19-0.07-5.62c0-2.42,0.02-4.27,0.07-5.55
				c0.18-5.99,1.88-10.53,5.12-13.61c3.24-3.08,7.61-4.62,13.12-4.62c5.51,0,9.87,1.54,13.08,4.62c3.21,3.08,4.91,7.62,5.09,13.61
				c0.09,2.56,0.13,4.41,0.13,5.55c0,1.1-0.04,2.97-0.13,5.62c-0.18,6.08-1.82,10.63-4.92,13.64c-3.11,3.02-7.52,4.53-13.25,4.53
				C324.33,151.33,319.9,149.82,316.77,146.81z M338.51,142.64c2.11-2.14,3.26-5.41,3.44-9.81c0.09-2.64,0.13-4.4,0.13-5.29
				c0-0.97-0.04-2.73-0.13-5.29c-0.18-4.4-1.32-7.69-3.44-9.84s-4.93-3.24-8.46-3.24c-3.52,0-6.35,1.08-8.49,3.24
				c-2.14,2.16-3.27,5.44-3.4,9.84c-0.04,1.28-0.07,3.04-0.07,5.29c0,2.2,0.02,3.96,0.07,5.29c0.13,4.41,1.26,7.68,3.37,9.81
				c2.11,2.14,4.96,3.21,8.52,3.21C333.58,145.85,336.4,144.78,338.51,142.64z"/>
			<path class="st3" d="M362.36,146.74c-3.08-3.06-4.62-7.7-4.62-13.91V106c0-0.48,0.13-0.87,0.4-1.16
				c0.26-0.29,0.62-0.43,1.06-0.43h3.17c0.48,0,0.87,0.14,1.16,0.43c0.29,0.29,0.43,0.67,0.43,1.16v26.96c0,4.32,1,7.53,3.01,9.65
				c2,2.12,4.86,3.17,8.56,3.17c3.66,0,6.49-1.07,8.49-3.2c2-2.14,3.01-5.34,3.01-9.61V106c0-0.48,0.13-0.87,0.4-1.16
				c0.26-0.29,0.64-0.43,1.12-0.43h3.17c0.44,0,0.8,0.14,1.09,0.43c0.29,0.29,0.43,0.67,0.43,1.16v26.83
				c0,6.21-1.53,10.85-4.59,13.91c-3.06,3.06-7.43,4.59-13.12,4.59S365.45,149.8,362.36,146.74z"/>
			<path class="st3" d="M404.78,150.24c-0.26-0.29-0.4-0.65-0.4-1.09V106c0-0.48,0.13-0.87,0.4-1.16c0.26-0.29,0.62-0.43,1.06-0.43
				h14.93c6.65,0,11.45,1.49,14.4,4.46c2.95,2.97,4.47,7.46,4.56,13.45c0.04,1.28,0.07,3,0.07,5.15c0,2.16-0.02,3.9-0.07,5.22
				c-0.09,4.19-0.76,7.59-2.01,10.21c-1.26,2.62-3.23,4.57-5.91,5.85c-2.69,1.28-6.25,1.92-10.7,1.92h-15.26
				C405.4,150.67,405.05,150.53,404.78,150.24z M420.77,145.19c3.08,0,5.54-0.43,7.37-1.29c1.83-0.86,3.15-2.2,3.96-4.03
				c0.81-1.83,1.27-4.31,1.35-7.43c0.09-2.64,0.13-4.29,0.13-4.96c0-0.7-0.04-2.33-0.13-4.89c-0.09-4.4-1.13-7.63-3.14-9.68
				c-2-2.05-5.3-3.07-9.88-3.07h-9.85v35.35H420.77z"/>
			<path class="st3" d="M460.22,150.27c-0.26-0.26-0.4-0.57-0.4-0.92l0.13-0.73l16.39-42.75c0.35-0.97,1.06-1.45,2.11-1.45h4.23
				c1.06,0,1.76,0.49,2.11,1.45l16.39,42.75l0.13,0.73c0,0.35-0.14,0.66-0.43,0.92c-0.29,0.26-0.61,0.4-0.96,0.4h-3.11
				c-0.44,0-0.8-0.12-1.09-0.36c-0.29-0.24-0.47-0.5-0.56-0.76l-3.7-9.51H469.6l-3.63,9.51c-0.35,0.75-0.9,1.12-1.65,1.12h-3.17
				C460.79,150.67,460.48,150.54,460.22,150.27z M471.52,134.55h18.1l-9.05-23.72L471.52,134.55z"/>
			<path class="st3" d="M510.73,146.54c-3.06-3.19-4.7-7.57-4.92-13.12c-0.04-1.19-0.07-3.13-0.07-5.81c0-2.73,0.02-4.71,0.07-5.95
				c0.22-5.55,1.86-9.92,4.92-13.12c3.06-3.19,7.52-4.79,13.38-4.79c3.92,0,7.25,0.69,9.98,2.08c2.73,1.39,4.79,3.2,6.18,5.45
				c1.39,2.25,2.15,4.65,2.28,7.2c0,0.4-0.14,0.72-0.43,0.96c-0.29,0.24-0.63,0.36-1.02,0.36h-3.3c-0.44,0-0.79-0.11-1.06-0.33
				c-0.26-0.22-0.46-0.59-0.59-1.12c-0.75-3.39-2.1-5.77-4.06-7.14c-1.96-1.37-4.61-2.05-7.96-2.05c-7.66,0-11.65,4.27-11.96,12.82
				c-0.04,1.19-0.07,3.02-0.07,5.48c0,2.47,0.02,4.34,0.07,5.62c0.31,8.5,4.29,12.75,11.96,12.75c3.3,0,5.95-0.68,7.93-2.05
				c1.98-1.36,3.35-3.72,4.1-7.07c0.13-0.53,0.33-0.9,0.59-1.12c0.26-0.22,0.62-0.33,1.06-0.33h3.3c0.4,0,0.74,0.12,1.02,0.36
				c0.29,0.24,0.43,0.56,0.43,0.96c-0.13,2.56-0.89,4.96-2.28,7.2c-1.39,2.25-3.45,4.06-6.18,5.45c-2.73,1.39-6.06,2.08-9.98,2.08
				C518.26,151.33,513.8,149.73,510.73,146.54z"/>
			<path class="st3" d="M546.98,150.27c-0.26-0.26-0.4-0.57-0.4-0.92l0.13-0.73l16.39-42.75c0.35-0.97,1.06-1.45,2.11-1.45h4.23
				c1.06,0,1.76,0.49,2.11,1.45l16.39,42.75l0.13,0.73c0,0.35-0.14,0.66-0.43,0.92c-0.29,0.26-0.61,0.4-0.96,0.4h-3.11
				c-0.44,0-0.8-0.12-1.09-0.36c-0.29-0.24-0.47-0.5-0.56-0.76l-3.7-9.51h-21.87l-3.63,9.51c-0.35,0.75-0.9,1.12-1.65,1.12h-3.17
				C547.55,150.67,547.24,150.54,546.98,150.27z M558.28,134.55h18.1l-9.05-23.72L558.28,134.55z"/>
			<path class="st3" d="M595.61,150.24c-0.26-0.29-0.4-0.65-0.4-1.09V106c0-0.48,0.13-0.87,0.4-1.16c0.26-0.29,0.62-0.43,1.06-0.43
				h14.93c6.65,0,11.45,1.49,14.4,4.46c2.95,2.97,4.47,7.46,4.56,13.45c0.04,1.28,0.07,3,0.07,5.15c0,2.16-0.02,3.9-0.07,5.22
				c-0.09,4.19-0.76,7.59-2.01,10.21c-1.26,2.62-3.23,4.57-5.91,5.85c-2.69,1.28-6.25,1.92-10.7,1.92h-15.26
				C596.22,150.67,595.87,150.53,595.61,150.24z M611.6,145.19c3.08,0,5.54-0.43,7.37-1.29c1.83-0.86,3.15-2.2,3.96-4.03
				c0.81-1.83,1.27-4.31,1.35-7.43c0.09-2.64,0.13-4.29,0.13-4.96c0-0.7-0.04-2.33-0.13-4.89c-0.09-4.4-1.13-7.63-3.14-9.68
				c-2-2.05-5.3-3.07-9.88-3.07h-9.85v35.35H611.6z"/>
			<path class="st3" d="M641.07,150.24c-0.26-0.29-0.4-0.65-0.4-1.09V106c0-0.48,0.13-0.87,0.4-1.16c0.26-0.29,0.62-0.43,1.06-0.43
				h27.16c0.48,0,0.87,0.14,1.16,0.43c0.29,0.29,0.43,0.67,0.43,1.16v2.38c0,0.44-0.14,0.79-0.43,1.06c-0.29,0.26-0.67,0.4-1.16,0.4
				h-22.53v14.73h21.08c0.48,0,0.87,0.14,1.16,0.43c0.29,0.29,0.43,0.67,0.43,1.16v2.25c0,0.44-0.14,0.8-0.43,1.09
				c-0.29,0.29-0.67,0.43-1.16,0.43h-21.08v15.26h23.06c0.48,0,0.87,0.14,1.16,0.43c0.29,0.29,0.43,0.67,0.43,1.16v2.38
				c0,0.44-0.15,0.8-0.46,1.09c-0.31,0.29-0.68,0.43-1.12,0.43h-27.68C641.68,150.67,641.33,150.53,641.07,150.24z"/>
			<path class="st3" d="M681.07,150.24c-0.29-0.29-0.43-0.65-0.43-1.09V106c0-0.48,0.13-0.87,0.4-1.16
				c0.26-0.29,0.64-0.43,1.12-0.43h3.11c0.79,0,1.34,0.33,1.65,0.99l14.07,27.02l14.21-27.02c0.35-0.66,0.88-0.99,1.59-0.99h3.11
				c0.48,0,0.86,0.14,1.12,0.43c0.26,0.29,0.4,0.67,0.4,1.16v43.15c0,0.44-0.14,0.8-0.43,1.09c-0.29,0.29-0.65,0.43-1.09,0.43h-3.04
				c-0.44,0-0.79-0.14-1.06-0.43c-0.26-0.29-0.4-0.65-0.4-1.09v-32.84l-11.3,21.87c-0.44,0.92-1.15,1.39-2.11,1.39H700
				c-0.93,0-1.63-0.46-2.12-1.39l-11.23-21.87v32.84c0,0.44-0.14,0.8-0.43,1.09c-0.29,0.29-0.65,0.43-1.09,0.43h-2.97
				C681.72,150.67,681.36,150.53,681.07,150.24z"/>
			<path class="st3" d="M745.83,150.24c-0.29-0.29-0.43-0.65-0.43-1.09v-15.66l-15.92-26.89c-0.13-0.26-0.2-0.55-0.2-0.86
				c0-0.35,0.13-0.66,0.4-0.92c0.26-0.26,0.57-0.4,0.93-0.4h3.17c0.79,0,1.37,0.38,1.72,1.12l13.08,21.61l13.02-21.61
				c0.44-0.75,1.01-1.12,1.72-1.12h3.17c0.35,0,0.67,0.13,0.96,0.4c0.29,0.26,0.43,0.57,0.43,0.92c0,0.22-0.09,0.51-0.26,0.86
				l-15.92,26.89v15.66c0,0.44-0.14,0.8-0.43,1.09c-0.29,0.29-0.67,0.43-1.16,0.43h-3.17C746.47,150.67,746.11,150.53,745.83,150.24
				z"/>
		</g>
	</g>
	<g id="XMLID_12_">
		<g id="XMLID_13_">
			<path id="XMLID_18_" class="st6" d="M157.7,37.43c2.27,0,4.11-1.84,4.11-4.11s-1.84-4.11-4.11-4.11h0
				c-2.27,0-4.11,1.84-4.11,4.11C153.59,35.59,155.43,37.43,157.7,37.43z"/>
			<path id="XMLID_17_" class="st6" d="M208.6,59.57l-34.55-21.1c-1.94-1.18-4.47-0.57-5.66,1.37c-1.18,1.94-0.57,4.47,1.37,5.66
				l28.8,17.58l-86.97,53.1L24.63,63.08l86.97-53.09l30.02,18.33c1.94,1.18,4.47,0.57,5.66-1.37s0.57-4.47-1.37-5.66L113.73,1.65
				c-1.32-0.8-2.97-0.8-4.29,0L14.58,59.57c-1.22,0.75-1.97,2.07-1.97,3.5c0,0-0.01,0.01-0.01,0.01v40.52
				c-7.32,2.01-12.71,8.72-12.71,16.66v43.62c0,2.27,1.84,4.11,4.11,4.11h26.33c2.27,0,4.11-1.84,4.11-4.11v-43.62
				c0-8.27-5.85-15.21-13.62-16.89V70.41l28.85,17.62v45.53c0,1.43,0.75,2.76,1.97,3.51l50.59,30.88c3.26,1.99,6.91,2.98,10.57,2.98
				s7.31-0.99,10.57-2.98l50.59-30.88c1.22-0.75,1.97-2.08,1.97-3.51V86.53l32.67-19.94c1.22-0.75,1.97-2.08,1.97-3.51
				C210.57,61.65,209.82,60.32,208.6,59.57z M8.12,159.76v-27.45h18.1v27.45H8.12z M26.23,120.26v3.82H8.12v-3.82
				c0-4.99,4.06-9.05,9.05-9.05S26.23,115.27,26.23,120.26z M167.7,131.24l-11.59,7.07v-5.71c0-2.27-1.84-4.11-4.11-4.11
				s-4.11,1.84-4.11,4.11v10.74l-28.8,17.58c-3.87,2.36-8.68,2.36-12.56,0l-48.62-29.68v-38.2l51.53,31.46
				c0.66,0.4,1.4,0.6,2.14,0.6s1.49-0.2,2.14-0.6l53.97-32.95V131.24z"/>
			<path id="XMLID_16_" class="st6" d="M152,120.26c1.08,0,2.14-0.44,2.91-1.21c0.77-0.77,1.21-1.83,1.21-2.91s-0.44-2.14-1.21-2.91
				c-0.77-0.77-1.83-1.21-2.91-1.21c-1.09,0-2.14,0.44-2.91,1.21c-0.77,0.77-1.21,1.83-1.21,2.91s0.44,2.14,1.21,2.91
				C149.86,119.82,150.92,120.26,152,120.26z"/>
			<g id="XMLID_14_">
				<path id="XMLID_15_" class="st6" d="M111.59,67.2c-1.08,0-2.14-0.44-2.91-1.21c-0.77-0.77-1.21-1.83-1.21-2.91
					c0-1.08,0.44-2.14,1.21-2.91c0.77-0.77,1.83-1.21,2.91-1.21s2.14,0.44,2.91,1.21c0.77,0.77,1.21,1.83,1.21,2.91
					c0,1.08-0.44,2.14-1.21,2.91C113.74,66.76,112.67,67.2,111.59,67.2z"/>
			</g>
		</g>
	</g>
	<g>
		<path class="st5" d="M498.62,1021.75l-268.02,21.2h0c-14.84,4.53-16.72,23.59-16.72,23.59v59.67
			c2.93,19.52,12.31,23.17,16.23,23.83l1.75,0.14c0,0,0,0,0,0l258.52,20.57c0,0,38.94,3.9,45.94-15.13v-118.5
			C536.32,1037.12,534.52,1023.67,498.62,1021.75z M461.52,1157.86l-227.19-17.65c0,0-14.57,0.56-16.25-17.37v-53.51
			c2.21-17.98,22.18-16.84,22.68-16.81c0.01,0,0.01,0,0.01,0l224.39-17.09c37.54,0.56,42.58,16.53,42.58,16.53l0.28,87.96
			C503.54,1160.1,461.52,1157.86,461.52,1157.86z"/>
		<g>
			<path class="st6" d="M263.32,1094.37h17.62c3.79,4.57,5.69,9.39,5.69,14.46c0,5.9-2.22,10.85-6.67,14.86
				c-4.45,4.01-9.92,6.01-16.42,6.01c-8.44,0-15.61-3.11-21.5-9.33c-5.89-6.22-8.84-13.8-8.84-22.73c0-8.96,3-16.42,9-22.38
				c6-5.96,13.49-8.93,22.47-8.93c3.07,0,6.47,0.6,10.2,1.81v17.96c-2.92-1.33-5.57-1.99-7.97-1.99c-4.34,0-7.89,1.31-10.63,3.94
				c-2.75,2.62-4.12,6.03-4.12,10.22c0,4.28,1.27,7.67,3.83,10.17c2.55,2.51,6,3.76,10.34,3.76c2.76,0,4.14-0.78,4.14-2.34
				c0-1.18-0.91-1.77-2.73-1.77h-4.42V1094.37z"/>
			<path class="st6" d="M320.97,1091.31v13.44H308.9c-1.64,0-2.8,0.24-3.48,0.71c-0.68,0.47-1.03,1.27-1.03,2.39
				c0,1.27,0.35,2.1,1.05,2.5c0.7,0.4,2.12,0.6,4.28,0.6h12.43v17.25h-14.53c-6.83,0-12.05-1.58-15.67-4.75
				c-3.61-3.17-5.42-7.75-5.42-13.73v-23.66c0-5.78,1.71-10.26,5.12-13.44c3.42-3.18,8.22-4.78,14.41-4.78h16.08v17.34h-11.79
				c-3.19,0-4.78,1-4.78,3.01c0,1.18,0.38,2,1.14,2.45c0.76,0.46,2.11,0.69,4.05,0.69H320.97z"/>
			<path class="st6" d="M325.15,1128.2v-39.18c0-6.87,2.12-12.37,6.35-16.5c4.24-4.13,9.88-6.19,16.92-6.19
				c7.01,0,12.38,2,16.1,6.01c3.72,4.01,5.58,9.77,5.58,17.29v38.56h-18.49v-38.56c0-3.69-1.35-5.53-4.05-5.53
				c-2.61,0-3.92,1.84-3.92,5.53v38.56H325.15z"/>
			<path class="st6" d="M408.16,1091.31v13.44h-12.07c-1.64,0-2.8,0.24-3.48,0.71c-0.68,0.47-1.03,1.27-1.03,2.39
				c0,1.27,0.35,2.1,1.05,2.5c0.7,0.4,2.12,0.6,4.28,0.6h12.43v17.25h-14.53c-6.83,0-12.05-1.58-15.67-4.75
				c-3.61-3.17-5.42-7.75-5.42-13.73v-23.66c0-5.78,1.71-10.26,5.12-13.44c3.42-3.18,8.22-4.78,14.41-4.78h16.08v17.34h-11.79
				c-3.19,0-4.78,1-4.78,3.01c0,1.18,0.38,2,1.14,2.45c0.76,0.46,2.11,0.69,4.05,0.69H408.16z"/>
			<path class="st6" d="M442.8,1067.56v17.2c-1.34-0.44-2.37-0.66-3.1-0.66c-1.4,0-2.6,0.5-3.6,1.5c-1,1-1.5,2.21-1.5,3.63
				c0,1.21,0.55,2.74,1.64,4.6l1.41,2.39c2.55,4.31,3.83,8.46,3.83,12.47c0,5.87-2.15,10.84-6.44,14.9c-4.3,4.07-9.54,6.1-15.74,6.1
				c-2.98,0-5.92-0.66-8.83-1.99v-17.47c1.76,1.09,3.33,1.64,4.69,1.64c1.61,0,2.95-0.45,4.03-1.35c1.08-0.9,1.62-2.03,1.62-3.38
				c0-0.88-0.87-2.82-2.6-5.79c-2.76-4.72-4.14-9.43-4.14-14.15c0-5.69,2.09-10.59,6.26-14.7c4.17-4.11,9.16-6.17,14.96-6.17
				C437.84,1066.33,440.34,1066.74,442.8,1067.56z"/>
			<path class="st6" d="M479,1091.31v13.44h-12.07c-1.64,0-2.8,0.24-3.48,0.71c-0.68,0.47-1.03,1.27-1.03,2.39
				c0,1.27,0.35,2.1,1.05,2.5c0.7,0.4,2.12,0.6,4.28,0.6h12.43v17.25h-14.53c-6.83,0-12.05-1.58-15.67-4.75
				c-3.61-3.17-5.42-7.75-5.42-13.73v-23.66c0-5.78,1.71-10.26,5.12-13.44c3.42-3.18,8.22-4.78,14.41-4.78h16.08v17.34h-11.79
				c-3.19,0-4.78,1-4.78,3.01c0,1.18,0.38,2,1.14,2.45c0.76,0.46,2.11,0.69,4.05,0.69H479z"/>
		</g>
		<g class="st1">
			<defs>
				<path id="SVGID_7_" d="M480.8,1091.02c0,0-239-7.1-270.44,25.35c-31.44,32.45,152.12,56.45,152.12,56.45l113.58-31.1
					l22.99-19.94L480.8,1091.02z"/>
			</defs>
			<clipPath id="SVGID_8_" class="st7">
				<use xlink:href="#SVGID_7_"  style="overflow:visible;"/>
			</clipPath>
			<g class="st13">
				<path class="st9" d="M263.32,1094.37h17.62c3.79,4.57,5.69,9.39,5.69,14.46c0,5.9-2.22,10.85-6.67,14.86
					c-4.45,4.01-9.92,6.01-16.42,6.01c-8.44,0-15.61-3.11-21.5-9.33c-5.89-6.22-8.84-13.8-8.84-22.73c0-8.96,3-16.42,9-22.38
					c6-5.96,13.49-8.93,22.47-8.93c3.07,0,6.47,0.6,10.2,1.81v17.96c-2.92-1.33-5.57-1.99-7.97-1.99c-4.34,0-7.89,1.31-10.63,3.94
					c-2.75,2.62-4.12,6.03-4.12,10.22c0,4.28,1.27,7.67,3.83,10.17c2.55,2.51,6,3.76,10.34,3.76c2.76,0,4.14-0.78,4.14-2.34
					c0-1.18-0.91-1.77-2.73-1.77h-4.42V1094.37z"/>
				<path class="st9" d="M320.97,1091.31v13.44H308.9c-1.64,0-2.8,0.24-3.48,0.71c-0.68,0.47-1.03,1.27-1.03,2.39
					c0,1.27,0.35,2.1,1.05,2.5c0.7,0.4,2.12,0.6,4.28,0.6h12.43v17.25h-14.53c-6.83,0-12.05-1.58-15.67-4.75
					c-3.61-3.17-5.42-7.75-5.42-13.73v-23.66c0-5.78,1.71-10.26,5.12-13.44c3.42-3.18,8.22-4.78,14.41-4.78h16.08v17.34h-11.79
					c-3.19,0-4.78,1-4.78,3.01c0,1.18,0.38,2,1.14,2.45c0.76,0.46,2.11,0.69,4.05,0.69H320.97z"/>
				<path class="st9" d="M325.15,1128.2v-39.18c0-6.87,2.12-12.37,6.35-16.5c4.24-4.13,9.88-6.19,16.92-6.19
					c7.01,0,12.38,2,16.1,6.01c3.72,4.01,5.58,9.77,5.58,17.29v38.56h-18.49v-38.56c0-3.69-1.35-5.53-4.05-5.53
					c-2.61,0-3.92,1.84-3.92,5.53v38.56H325.15z"/>
				<path class="st9" d="M408.16,1091.31v13.44h-12.07c-1.64,0-2.8,0.24-3.48,0.71c-0.68,0.47-1.03,1.27-1.03,2.39
					c0,1.27,0.35,2.1,1.05,2.5c0.7,0.4,2.12,0.6,4.28,0.6h12.43v17.25h-14.53c-6.83,0-12.05-1.58-15.67-4.75
					c-3.61-3.17-5.42-7.75-5.42-13.73v-23.66c0-5.78,1.71-10.26,5.12-13.44c3.42-3.18,8.22-4.78,14.41-4.78h16.08v17.34h-11.79
					c-3.19,0-4.78,1-4.78,3.01c0,1.18,0.38,2,1.14,2.45c0.76,0.46,2.11,0.69,4.05,0.69H408.16z"/>
				<path class="st9" d="M442.8,1067.56v17.2c-1.34-0.44-2.37-0.66-3.1-0.66c-1.4,0-2.6,0.5-3.6,1.5c-1,1-1.5,2.21-1.5,3.63
					c0,1.21,0.55,2.74,1.64,4.6l1.41,2.39c2.55,4.31,3.83,8.46,3.83,12.47c0,5.87-2.15,10.84-6.44,14.9
					c-4.3,4.07-9.54,6.1-15.74,6.1c-2.98,0-5.92-0.66-8.83-1.99v-17.47c1.76,1.09,3.33,1.64,4.69,1.64c1.61,0,2.95-0.45,4.03-1.35
					c1.08-0.9,1.62-2.03,1.62-3.38c0-0.88-0.87-2.82-2.6-5.79c-2.76-4.72-4.14-9.43-4.14-14.15c0-5.69,2.09-10.59,6.26-14.7
					c4.17-4.11,9.16-6.17,14.96-6.17C437.84,1066.33,440.34,1066.74,442.8,1067.56z"/>
				<path class="st9" d="M479,1091.31v13.44h-12.07c-1.64,0-2.8,0.24-3.48,0.71c-0.68,0.47-1.03,1.27-1.03,2.39
					c0,1.27,0.35,2.1,1.05,2.5c0.7,0.4,2.12,0.6,4.28,0.6h12.43v17.25h-14.53c-6.83,0-12.05-1.58-15.67-4.75
					c-3.61-3.17-5.42-7.75-5.42-13.73v-23.66c0-5.78,1.71-10.26,5.12-13.44c3.42-3.18,8.22-4.78,14.41-4.78h16.08v17.34h-11.79
					c-3.19,0-4.78,1-4.78,3.01c0,1.18,0.38,2,1.14,2.45c0.76,0.46,2.11,0.69,4.05,0.69H479z"/>
			</g>
		</g>
		<polygon class="st6" points="381.92,1055.35 391.72,1055.35 394.09,1066 391.38,1066 		"/>
	</g>
	<g>
		<g>
			<path class="st3" d="M236.33,1201.89c-3.06-3.19-4.7-7.57-4.92-13.12c-0.04-1.19-0.07-3.13-0.07-5.81c0-2.73,0.02-4.71,0.07-5.95
				c0.22-5.55,1.86-9.92,4.92-13.12c3.06-3.19,7.52-4.79,13.38-4.79c3.92,0,7.25,0.69,9.98,2.08c2.73,1.39,4.79,3.2,6.18,5.45
				c1.39,2.25,2.15,4.65,2.28,7.2c0,0.4-0.14,0.72-0.43,0.96c-0.29,0.24-0.63,0.36-1.02,0.36h-3.3c-0.44,0-0.79-0.11-1.06-0.33
				c-0.26-0.22-0.46-0.59-0.59-1.12c-0.75-3.39-2.1-5.77-4.06-7.14c-1.96-1.37-4.61-2.05-7.96-2.05c-7.66,0-11.65,4.27-11.96,12.82
				c-0.04,1.19-0.07,3.02-0.07,5.48c0,2.47,0.02,4.34,0.07,5.62c0.31,8.5,4.29,12.75,11.96,12.75c3.3,0,5.95-0.68,7.93-2.05
				c1.98-1.36,3.35-3.72,4.1-7.07c0.13-0.53,0.33-0.9,0.59-1.12c0.26-0.22,0.62-0.33,1.06-0.33h3.3c0.4,0,0.74,0.12,1.02,0.36
				c0.29,0.24,0.43,0.56,0.43,0.96c-0.13,2.56-0.89,4.96-2.28,7.2c-1.39,2.25-3.45,4.06-6.18,5.45c-2.73,1.39-6.06,2.08-9.98,2.08
				C243.85,1206.69,239.39,1205.09,236.33,1201.89z"/>
			<path class="st3" d="M277.53,1205.59c-0.26-0.29-0.4-0.65-0.4-1.09v-43.21c0-0.44,0.13-0.8,0.4-1.09
				c0.26-0.29,0.62-0.43,1.06-0.43h3.3c0.44,0,0.79,0.14,1.06,0.43c0.26,0.29,0.4,0.65,0.4,1.09v39.18h22.07
				c0.48,0,0.87,0.14,1.16,0.43c0.29,0.29,0.43,0.65,0.43,1.09v2.51c0,0.44-0.16,0.8-0.46,1.09c-0.31,0.29-0.68,0.43-1.12,0.43
				h-26.83C278.14,1206.02,277.79,1205.88,277.53,1205.59z"/>
			<path class="st3" d="M316.77,1202.16c-3.13-3.02-4.78-7.57-4.96-13.64c-0.04-1.32-0.07-3.19-0.07-5.62
				c0-2.42,0.02-4.27,0.07-5.55c0.18-5.99,1.88-10.53,5.12-13.61c3.24-3.08,7.61-4.62,13.12-4.62c5.51,0,9.87,1.54,13.08,4.62
				c3.21,3.08,4.91,7.62,5.09,13.61c0.09,2.56,0.13,4.41,0.13,5.55c0,1.1-0.04,2.97-0.13,5.62c-0.18,6.08-1.82,10.63-4.92,13.64
				c-3.11,3.02-7.52,4.53-13.25,4.53C324.33,1206.69,319.9,1205.18,316.77,1202.16z M338.51,1198c2.11-2.14,3.26-5.41,3.44-9.81
				c0.09-2.64,0.13-4.4,0.13-5.29c0-0.97-0.04-2.73-0.13-5.29c-0.18-4.4-1.32-7.69-3.44-9.84s-4.93-3.24-8.46-3.24
				c-3.52,0-6.35,1.08-8.49,3.24c-2.14,2.16-3.27,5.44-3.4,9.84c-0.04,1.28-0.07,3.04-0.07,5.29c0,2.2,0.02,3.96,0.07,5.29
				c0.13,4.41,1.26,7.68,3.37,9.81c2.11,2.14,4.96,3.21,8.52,3.21C333.58,1201.2,336.4,1200.13,338.51,1198z"/>
			<path class="st3" d="M362.36,1202.09c-3.08-3.06-4.62-7.7-4.62-13.91v-26.83c0-0.48,0.13-0.87,0.4-1.16
				c0.26-0.29,0.62-0.43,1.06-0.43h3.17c0.48,0,0.87,0.14,1.16,0.43c0.29,0.29,0.43,0.67,0.43,1.16v26.96c0,4.32,1,7.53,3.01,9.65
				c2,2.12,4.86,3.17,8.56,3.17c3.66,0,6.49-1.07,8.49-3.2c2-2.14,3.01-5.34,3.01-9.61v-26.96c0-0.48,0.13-0.87,0.4-1.16
				c0.26-0.29,0.64-0.43,1.12-0.43h3.17c0.44,0,0.8,0.14,1.09,0.43c0.29,0.29,0.43,0.67,0.43,1.16v26.83
				c0,6.21-1.53,10.85-4.59,13.91c-3.06,3.06-7.43,4.59-13.12,4.59S365.45,1205.16,362.36,1202.09z"/>
			<path class="st3" d="M404.78,1205.59c-0.26-0.29-0.4-0.65-0.4-1.09v-43.15c0-0.48,0.13-0.87,0.4-1.16
				c0.26-0.29,0.62-0.43,1.06-0.43h14.93c6.65,0,11.45,1.49,14.4,4.46c2.95,2.97,4.47,7.46,4.56,13.45c0.04,1.28,0.07,3,0.07,5.15
				c0,2.16-0.02,3.9-0.07,5.22c-0.09,4.19-0.76,7.59-2.01,10.21c-1.26,2.62-3.23,4.57-5.91,5.85c-2.69,1.28-6.25,1.92-10.7,1.92
				h-15.26C405.4,1206.02,405.05,1205.88,404.78,1205.59z M420.77,1200.54c3.08,0,5.54-0.43,7.37-1.29c1.83-0.86,3.15-2.2,3.96-4.03
				c0.81-1.83,1.27-4.31,1.35-7.43c0.09-2.64,0.13-4.29,0.13-4.96c0-0.7-0.04-2.33-0.13-4.89c-0.09-4.4-1.13-7.63-3.14-9.68
				c-2-2.05-5.3-3.07-9.88-3.07h-9.85v35.35H420.77z"/>
			<path class="st3" d="M460.22,1205.63c-0.26-0.26-0.4-0.57-0.4-0.92l0.13-0.73l16.39-42.75c0.35-0.97,1.06-1.45,2.11-1.45h4.23
				c1.06,0,1.76,0.49,2.11,1.45l16.39,42.75l0.13,0.73c0,0.35-0.14,0.66-0.43,0.92c-0.29,0.26-0.61,0.4-0.96,0.4h-3.11
				c-0.44,0-0.8-0.12-1.09-0.36c-0.29-0.24-0.47-0.5-0.56-0.76l-3.7-9.51H469.6l-3.63,9.51c-0.35,0.75-0.9,1.12-1.65,1.12h-3.17
				C460.79,1206.02,460.48,1205.89,460.22,1205.63z M471.52,1189.9h18.1l-9.05-23.72L471.52,1189.9z"/>
			<path class="st3" d="M510.73,1201.89c-3.06-3.19-4.7-7.57-4.92-13.12c-0.04-1.19-0.07-3.13-0.07-5.81c0-2.73,0.02-4.71,0.07-5.95
				c0.22-5.55,1.86-9.92,4.92-13.12c3.06-3.19,7.52-4.79,13.38-4.79c3.92,0,7.25,0.69,9.98,2.08c2.73,1.39,4.79,3.2,6.18,5.45
				c1.39,2.25,2.15,4.65,2.28,7.2c0,0.4-0.14,0.72-0.43,0.96c-0.29,0.24-0.63,0.36-1.02,0.36h-3.3c-0.44,0-0.79-0.11-1.06-0.33
				c-0.26-0.22-0.46-0.59-0.59-1.12c-0.75-3.39-2.1-5.77-4.06-7.14c-1.96-1.37-4.61-2.05-7.96-2.05c-7.66,0-11.65,4.27-11.96,12.82
				c-0.04,1.19-0.07,3.02-0.07,5.48c0,2.47,0.02,4.34,0.07,5.62c0.31,8.5,4.29,12.75,11.96,12.75c3.3,0,5.95-0.68,7.93-2.05
				c1.98-1.36,3.35-3.72,4.1-7.07c0.13-0.53,0.33-0.9,0.59-1.12c0.26-0.22,0.62-0.33,1.06-0.33h3.3c0.4,0,0.74,0.12,1.02,0.36
				c0.29,0.24,0.43,0.56,0.43,0.96c-0.13,2.56-0.89,4.96-2.28,7.2c-1.39,2.25-3.45,4.06-6.18,5.45c-2.73,1.39-6.06,2.08-9.98,2.08
				C518.26,1206.69,513.8,1205.09,510.73,1201.89z"/>
			<path class="st3" d="M546.98,1205.63c-0.26-0.26-0.4-0.57-0.4-0.92l0.13-0.73l16.39-42.75c0.35-0.97,1.06-1.45,2.11-1.45h4.23
				c1.06,0,1.76,0.49,2.11,1.45l16.39,42.75l0.13,0.73c0,0.35-0.14,0.66-0.43,0.92c-0.29,0.26-0.61,0.4-0.96,0.4h-3.11
				c-0.44,0-0.8-0.12-1.09-0.36c-0.29-0.24-0.47-0.5-0.56-0.76l-3.7-9.51h-21.87l-3.63,9.51c-0.35,0.75-0.9,1.12-1.65,1.12h-3.17
				C547.55,1206.02,547.24,1205.89,546.98,1205.63z M558.28,1189.9h18.1l-9.05-23.72L558.28,1189.9z"/>
			<path class="st3" d="M595.61,1205.59c-0.26-0.29-0.4-0.65-0.4-1.09v-43.15c0-0.48,0.13-0.87,0.4-1.16
				c0.26-0.29,0.62-0.43,1.06-0.43h14.93c6.65,0,11.45,1.49,14.4,4.46c2.95,2.97,4.47,7.46,4.56,13.45c0.04,1.28,0.07,3,0.07,5.15
				c0,2.16-0.02,3.9-0.07,5.22c-0.09,4.19-0.76,7.59-2.01,10.21c-1.26,2.62-3.23,4.57-5.91,5.85c-2.69,1.28-6.25,1.92-10.7,1.92
				h-15.26C596.22,1206.02,595.87,1205.88,595.61,1205.59z M611.6,1200.54c3.08,0,5.54-0.43,7.37-1.29c1.83-0.86,3.15-2.2,3.96-4.03
				c0.81-1.83,1.27-4.31,1.35-7.43c0.09-2.64,0.13-4.29,0.13-4.96c0-0.7-0.04-2.33-0.13-4.89c-0.09-4.4-1.13-7.63-3.14-9.68
				c-2-2.05-5.3-3.07-9.88-3.07h-9.85v35.35H611.6z"/>
			<path class="st3" d="M641.07,1205.59c-0.26-0.29-0.4-0.65-0.4-1.09v-43.15c0-0.48,0.13-0.87,0.4-1.16
				c0.26-0.29,0.62-0.43,1.06-0.43h27.16c0.48,0,0.87,0.14,1.16,0.43c0.29,0.29,0.43,0.67,0.43,1.16v2.38
				c0,0.44-0.14,0.79-0.43,1.06c-0.29,0.26-0.67,0.4-1.16,0.4h-22.53v14.73h21.08c0.48,0,0.87,0.14,1.16,0.43
				c0.29,0.29,0.43,0.67,0.43,1.16v2.25c0,0.44-0.14,0.8-0.43,1.09c-0.29,0.29-0.67,0.43-1.16,0.43h-21.08v15.26h23.06
				c0.48,0,0.87,0.14,1.16,0.43c0.29,0.29,0.43,0.67,0.43,1.16v2.38c0,0.44-0.15,0.8-0.46,1.09c-0.31,0.29-0.68,0.43-1.12,0.43
				h-27.68C641.68,1206.02,641.33,1205.88,641.07,1205.59z"/>
			<path class="st3" d="M681.07,1205.59c-0.29-0.29-0.43-0.65-0.43-1.09v-43.15c0-0.48,0.13-0.87,0.4-1.16
				c0.26-0.29,0.64-0.43,1.12-0.43h3.11c0.79,0,1.34,0.33,1.65,0.99l14.07,27.02l14.21-27.02c0.35-0.66,0.88-0.99,1.59-0.99h3.11
				c0.48,0,0.86,0.14,1.12,0.43c0.26,0.29,0.4,0.67,0.4,1.16v43.15c0,0.44-0.14,0.8-0.43,1.09c-0.29,0.29-0.65,0.43-1.09,0.43h-3.04
				c-0.44,0-0.79-0.14-1.06-0.43c-0.26-0.29-0.4-0.65-0.4-1.09v-32.84l-11.3,21.87c-0.44,0.92-1.15,1.39-2.11,1.39H700
				c-0.93,0-1.63-0.46-2.12-1.39l-11.23-21.87v32.84c0,0.44-0.14,0.8-0.43,1.09c-0.29,0.29-0.65,0.43-1.09,0.43h-2.97
				C681.72,1206.02,681.36,1205.88,681.07,1205.59z"/>
			<path class="st3" d="M745.83,1205.59c-0.29-0.29-0.43-0.65-0.43-1.09v-15.66l-15.92-26.89c-0.13-0.26-0.2-0.55-0.2-0.86
				c0-0.35,0.13-0.66,0.4-0.92c0.26-0.26,0.57-0.4,0.93-0.4h3.17c0.79,0,1.37,0.38,1.72,1.12l13.08,21.61l13.02-21.61
				c0.44-0.75,1.01-1.12,1.72-1.12h3.17c0.35,0,0.67,0.13,0.96,0.4c0.29,0.26,0.43,0.57,0.43,0.92c0,0.22-0.09,0.51-0.26,0.86
				l-15.92,26.89v15.66c0,0.44-0.14,0.8-0.43,1.09c-0.29,0.29-0.67,0.43-1.16,0.43h-3.17
				C746.47,1206.02,746.11,1205.88,745.83,1205.59z"/>
		</g>
	</g>
	<g id="XMLID_23_">
		<g id="XMLID_30_">
			<path id="XMLID_33_" class="st11" d="M30.34,1219.23H4.01v-43.62c0-7.27,5.9-13.17,13.17-13.17l0,0c7.27,0,13.17,5.9,13.17,13.17
				V1219.23z"/>
			<path id="XMLID_32_" class="st0" d="M53.8,1140.91v47.99l50.59,30.88c5.17,3.16,11.67,3.16,16.84,0l50.59-30.88v-47.99"/>
			<path id="XMLID_31_" class="st11" d="M206.45,1118.43l-94.86,57.92l-94.86-57.92l94.86-57.92L206.45,1118.43z"/>
		</g>
		<g id="XMLID_24_">
			<path id="XMLID_29_" class="st6" d="M157.7,1092.78c2.27,0,4.11-1.84,4.11-4.11s-1.84-4.11-4.11-4.11h0
				c-2.27,0-4.11,1.84-4.11,4.11S155.43,1092.78,157.7,1092.78z"/>
			<path id="XMLID_28_" class="st6" d="M208.6,1114.92l-34.55-21.1c-1.94-1.18-4.47-0.57-5.66,1.37c-1.18,1.94-0.57,4.47,1.37,5.66
				l28.8,17.58l-86.97,53.1l-86.97-53.09l86.97-53.09l30.02,18.33c1.94,1.18,4.47,0.57,5.66-1.37s0.57-4.47-1.37-5.66l-32.16-19.64
				c-1.32-0.8-2.97-0.8-4.29,0l-94.86,57.92c-1.22,0.75-1.97,2.07-1.97,3.5c0,0-0.01,0.01-0.01,0.01v40.52
				c-7.32,2.01-12.71,8.72-12.71,16.66v43.62c0,2.27,1.84,4.11,4.11,4.11h26.33c2.27,0,4.11-1.84,4.11-4.11v-43.62
				c0-8.27-5.85-15.21-13.62-16.89v-32.96l28.85,17.62v45.53c0,1.43,0.75,2.76,1.97,3.51l50.59,30.88
				c3.26,1.99,6.91,2.98,10.57,2.98s7.31-0.99,10.57-2.98l50.59-30.88c1.22-0.75,1.97-2.08,1.97-3.51v-47.02l32.67-19.94
				c1.22-0.75,1.97-2.08,1.97-3.51C210.57,1117,209.82,1115.67,208.6,1114.92z M8.12,1215.11v-27.45h18.1v27.45H8.12z
				 M26.23,1175.61v3.82H8.12v-3.82c0-4.99,4.06-9.05,9.05-9.05S26.23,1170.62,26.23,1175.61z M167.7,1186.6l-11.59,7.07v-5.71
				c0-2.27-1.84-4.11-4.11-4.11s-4.11,1.84-4.11,4.11v10.74l-28.8,17.58c-3.87,2.36-8.68,2.36-12.56,0l-48.62-29.68v-38.2
				l51.53,31.46c0.66,0.4,1.4,0.6,2.14,0.6s1.49-0.2,2.14-0.6l53.97-32.95V1186.6z"/>
			<path id="XMLID_27_" class="st6" d="M152,1175.61c1.08,0,2.14-0.44,2.91-1.21c0.77-0.77,1.21-1.83,1.21-2.91
				c0-1.08-0.44-2.14-1.21-2.91c-0.77-0.77-1.83-1.21-2.91-1.21c-1.09,0-2.14,0.44-2.91,1.21c-0.77,0.77-1.21,1.83-1.21,2.91
				c0,1.08,0.44,2.14,1.21,2.91C149.86,1175.17,150.92,1175.61,152,1175.61z"/>
			<g id="XMLID_25_">
				<path id="XMLID_26_" class="st6" d="M111.59,1122.55c-1.08,0-2.14-0.44-2.91-1.21c-0.77-0.77-1.21-1.83-1.21-2.91
					s0.44-2.14,1.21-2.91c0.77-0.77,1.83-1.21,2.91-1.21s2.14,0.44,2.91,1.21c0.77,0.77,1.21,1.83,1.21,2.91s-0.44,2.14-1.21,2.91
					C113.74,1122.11,112.67,1122.55,111.59,1122.55z"/>
			</g>
		</g>
	</g>
	<g>
	</g>
	<g>
	</g>
	<g>
	</g>
	<g>
	</g>
	<g>
	</g>
</g>
</svg>
