<?xml version="1.0" standalone="no"?>
<!DOCTYPE svg PUBLIC "-//W3C//DTD SVG 20010904//EN"
 "http://www.w3.org/TR/2001/REC-SVG-20010904/DTD/svg10.dtd">
<svg version="1.0" xmlns="http://www.w3.org/2000/svg"
 width="80.000000pt" height="80.000000pt" viewBox="0 0 80.000000 80.000000"
 preserveAspectRatio="xMidYMid meet">
<metadata>
Created by potrace 1.16, written by Peter Selinger 2001-2019
</metadata>
<g transform="translate(0.000000,80.000000) scale(0.010000,-0.010485)"
fill="#000000" stroke="none">
<path d="M3670 7520 c-52 -5 -142 -16 -200 -24 -58 -8 -130 -18 -160 -21 -150
-18 -519 -125 -745 -217 -359 -146 -573 -270 -880 -508 -388 -302 -689 -645
-929 -1060 -190 -329 -349 -741 -421 -1090 -86 -414 -97 -609 -64 -1110 18
-274 116 -700 228 -985 52 -133 194 -428 266 -551 91 -155 198 -307 329 -463
122 -146 320 -352 411 -428 28 -22 79 -65 115 -95 321 -267 756 -506 1160
-636 142 -46 393 -112 424 -112 16 0 27 16 48 63 35 81 58 152 58 180 0 110
-122 510 -294 962 -88 231 -108 239 -485 205 -512 -48 -752 -10 -848 134 -47
69 -54 102 -63 289 -13 246 -15 256 -114 396 -43 61 -45 113 -7 185 17 32 30
59 29 60 -57 22 -71 78 -72 283 l-1 162 -38 39 c-39 40 -102 73 -215 113 -80
28 -171 86 -206 131 -30 41 -35 101 -12 166 18 51 137 259 336 592 84 140 162
275 173 299 17 38 20 66 19 180 -1 75 -6 172 -12 216 -25 191 -24 225 5 326
73 256 174 526 261 703 90 182 303 434 474 563 75 56 284 175 378 214 131 55
379 128 562 165 96 20 178 38 182 40 3 2 91 14 195 26 146 17 242 22 428 22
296 -1 378 -11 730 -90 64 -15 228 -77 410 -156 133 -58 345 -189 480 -297 39
-31 79 -63 90 -71 11 -8 74 -69 141 -135 341 -338 528 -730 554 -1160 13 -221
-14 -477 -75 -703 -27 -101 -108 -323 -154 -424 -115 -250 -208 -481 -249
-614 -77 -252 -90 -333 -98 -604 -7 -218 8 -378 57 -630 75 -386 124 -488 375
-775 86 -99 161 -182 166 -183 18 -7 283 272 419 443 416 522 682 1136 780
1802 39 264 34 749 -10 1028 -73 458 -230 905 -457 1302 -310 543 -817 1055
-1334 1350 -252 143 -366 197 -595 283 -271 101 -582 174 -870 205 -176 20
-539 27 -675 15z"/>
<path d="M3972 6771 c-45 -29 -72 -77 -72 -129 0 -132 132 -189 249 -108 28
20 49 26 90 26 53 0 54 0 133 -78 l80 -78 0 -429 -1 -429 -128 -128 c-70 -70
-134 -127 -141 -128 -7 0 -304 290 -659 645 -520 518 -653 646 -678 651 -18 3
-87 4 -153 2 l-120 -3 -125 -122 c-119 -117 -127 -123 -166 -123 -58 0 -120
-56 -128 -116 -16 -118 124 -215 222 -154 46 29 75 75 75 120 0 30 12 47 83
122 45 48 95 92 110 97 16 6 61 11 100 11 l72 1 677 -681 c372 -374 683 -680
690 -680 7 0 108 95 223 210 l210 210 3 478 c2 262 -1 488 -6 501 -4 13 -62
77 -128 142 l-119 119 -85 0 c-59 0 -94 5 -115 16 -70 38 -82 43 -120 49 -30
4 -48 1 -73 -14z"/>
<path d="M3064 6766 c-106 -46 -116 -195 -18 -257 52 -32 112 -29 171 9 42 27
59 32 111 32 l62 0 309 -311 c171 -170 312 -318 315 -327 2 -9 7 -34 11 -54
19 -113 169 -158 244 -72 83 94 36 223 -88 243 l-53 8 -337 336 -336 335 -103
5 c-71 4 -109 10 -120 20 -52 45 -112 57 -168 33z"/>
<path d="M4900 6349 c-64 -27 -108 -105 -94 -166 3 -15 19 -45 35 -65 l29 -37
0 -346 c0 -268 -3 -353 -14 -378 -7 -18 -35 -53 -63 -78 -39 -37 -59 -48 -97
-53 -72 -11 -127 -65 -133 -132 -4 -40 0 -55 19 -83 35 -52 69 -73 120 -73 81
-2 139 50 152 136 8 47 27 74 105 149 78 76 84 98 80 297 -1 85 -2 248 -1 362
2 171 5 209 17 222 22 22 45 80 45 113 -1 38 -30 92 -61 116 -31 23 -103 31
-139 16z"/>
<path d="M2693 6154 c-17 -8 -39 -24 -49 -35 -22 -24 -31 -119 -15 -157 14
-33 85 -82 119 -82 13 0 33 -5 45 -11 26 -13 247 -230 247 -242 0 -4 -113 -7
-250 -5 l-251 3 -109 111 c-85 86 -110 117 -110 138 0 40 -37 104 -73 126 -58
36 -148 20 -186 -32 -26 -36 -39 -99 -28 -138 14 -55 52 -87 116 -101 53 -12
63 -19 189 -143 l132 -130 477 2 c262 1 478 4 480 5 1 2 -108 113 -243 248
-245 243 -283 290 -284 352 0 17 -13 41 -33 64 -29 31 -41 37 -88 40 -37 2
-64 -2 -86 -13z"/>
<path d="M5335 5912 c-39 -24 -50 -38 -64 -85 -16 -48 -7 -87 30 -134 l30 -37
-3 -248 -3 -247 -484 -485 c-266 -266 -487 -490 -492 -498 -5 -7 -9 -912 -9
-2010 l0 -1997 26 -20 c15 -12 35 -21 46 -21 15 0 69 22 80 33 2 1 5 710 8
1574 l5 1573 758 758 757 757 0 148 c0 146 0 149 27 184 20 26 28 50 31 92 4
51 1 61 -23 89 -40 47 -80 65 -133 59 -121 -13 -167 -138 -92 -249 28 -40 30
-50 30 -136 0 -51 -5 -103 -11 -115 -14 -29 -1336 -1346 -1343 -1339 -9 9 -7
146 3 160 4 8 144 150 310 317 l302 303 58 11 c82 16 121 62 121 143 0 53 -28
101 -71 124 -41 21 -125 15 -162 -12 -29 -21 -57 -80 -57 -122 0 -22 -45 -72
-248 -275 -136 -136 -250 -247 -255 -247 -13 0 -7 120 7 148 8 15 229 241 491
502 262 261 481 485 486 498 5 12 9 140 9 283 l0 261 30 53 c16 29 30 67 30
85 0 42 -34 102 -70 123 -38 23 -117 22 -155 -1z"/>
<path d="M1849 5658 c-69 -18 -109 -71 -109 -147 0 -72 54 -124 156 -150 33
-9 66 -35 167 -136 69 -69 127 -126 129 -127 1 -1 297 -5 655 -8 l653 -5 353
-352 c193 -194 359 -353 368 -353 8 0 59 46 113 101 78 80 110 106 150 121
102 39 133 95 104 191 -9 30 -23 47 -57 69 -48 30 -82 35 -128 17 -62 -23 -95
-74 -94 -145 0 -43 -5 -52 -67 -109 l-33 -30 -317 321 c-174 177 -327 326
-339 333 -16 8 -120 11 -355 11 -183 0 -470 0 -637 0 l-303 0 -86 83 c-97 94
-142 151 -142 180 0 12 -9 39 -20 62 -30 62 -93 91 -161 73z"/>
<path d="M1860 5220 c-44 -11 -100 -70 -101 -107 -4 -108 28 -151 132 -178 43
-12 65 -27 123 -84 l71 -71 627 -2 628 -3 299 -299 300 -300 3 -90 c2 -50 2
-95 -1 -100 -2 -4 -128 116 -280 268 l-277 276 -336 0 c-256 0 -338 3 -345 13
-6 6 -13 32 -16 56 -7 57 -32 91 -89 119 -35 18 -55 22 -83 16 -65 -12 -125
-82 -125 -146 0 -69 79 -148 148 -148 18 0 43 -10 60 -25 16 -13 41 -29 56
-35 17 -6 154 -10 354 -10 l326 0 279 -277 c154 -153 292 -298 308 -322 l29
-45 0 -1767 0 -1767 26 -31 c34 -41 75 -42 115 -2 l29 29 0 2007 c0 1287 -4
2013 -10 2025 -5 10 -164 174 -354 364 l-344 346 -595 0 c-327 0 -609 3 -628
7 -20 4 -52 25 -85 57 -42 41 -53 59 -58 96 -8 49 -35 99 -64 117 -28 17 -82
23 -122 13z"/>
<path d="M6014 4309 c-43 -12 -92 -70 -99 -116 -9 -60 -37 -106 -75 -125 -29
-15 -63 -18 -192 -18 l-157 0 -376 -372 c-296 -294 -377 -379 -385 -407 -14
-51 -14 -3023 1 -3073 7 -26 19 -43 39 -53 41 -21 58 -19 91 14 l29 29 0 1518
0 1517 325 323 c179 178 334 328 345 334 10 5 88 10 175 10 l157 0 62 60 c48
46 71 61 103 66 58 9 99 37 123 83 30 61 24 138 -15 177 -18 19 -79 44 -102
43 -10 0 -32 -5 -49 -10z"/>
<path d="M5587 3436 c-22 -8 -49 -24 -61 -35 -19 -18 -35 -21 -118 -21 -109 0
-108 0 -220 -110 l-68 -67 0 -1516 0 -1516 26 -20 c33 -26 75 -27 105 -2 l24
19 5 1481 5 1480 40 41 c39 40 39 40 116 40 52 0 80 -4 88 -13 6 -8 29 -22 50
-32 125 -56 254 93 178 205 -41 62 -109 88 -170 66z"/>
</g>
</svg>
